<svg xmlns="http://www.w3.org/2000/svg" xmlns:xlink="http://www.w3.org/1999/xlink" width="1078.091" height="648" viewBox="0 0 1078.091 648">
  <defs>
    <clipPath id="clip-path">
      <rect id="Rectangle_19" data-name="Rectangle 19" width="753.138" height="647.282" fill="#fff" stroke="#707070" stroke-width="1"/>
    </clipPath>
    <clipPath id="clip-path-3">
      <rect id="Rectangle_19-2" data-name="Rectangle 19" width="483.567" height="402.567" fill="#fff" stroke="#707070" stroke-width="1"/>
    </clipPath>
  </defs>
  <g id="bUILDINGS" transform="translate(156.091 -445)" opacity="0.3">
    <g id="Groupe_232" data-name="Groupe 232" transform="translate(-4072.091 619)">
      <g id="Groupe_de_masques_10" data-name="Groupe de masques 10" transform="translate(3916 -174)" clip-path="url(#clip-path)">
        <g id="business" transform="translate(50.805 0)">
          <g id="Group_7601" data-name="Group 7601" transform="translate(0)">
            <path id="Rectangle_1823" data-name="Rectangle 1823" d="M54.96,225.332c0-20.254,13.836-36.674,30.9-36.674H283.638c17.068,0,30.9,16.42,30.9,36.674v352.08c0,20.256-13.835,36.676-30.9,36.676H85.863c-17.067,0-30.9-16.42-30.9-36.676Z" transform="translate(-54.96 2.027)" fill="#b5c0ff"/>
            <path id="Rectangle_1824" data-name="Rectangle 1824" d="M318.378,127.506c0-20.256,13.835-36.676,30.9-36.676H503.792c17.066,0,30.9,16.42,30.9,36.676V670.3c0,20.254-13.835,36.674-30.9,36.674H349.28c-17.066,0-30.9-16.42-30.9-36.674Z" transform="translate(114.257 -90.83)" fill="#b5c0ff"/>
            <g id="Icon-color" transform="translate(0 14.638)">
              <path id="Tracé_167" data-name="Tracé 167" d="M706.487,678.263c0-9.706-6.63-17.573-14.809-17.573H617.643V274.075c0-19.412-13.26-35.147-29.615-35.147H469.568V133.487c0-19.41-13.259-35.147-29.615-35.147H321.493c-16.355,0-29.614,15.737-29.614,35.147V379.515H173.42c-16.357,0-29.615,15.735-29.615,35.147V660.69H69.768c-8.178,0-14.807,7.867-14.807,17.573v35.147c0,9.706,6.63,17.573,14.807,17.573H691.678c8.178,0,14.809-7.867,14.809-17.573ZM513.99,309.222h29.615c8.178,0,14.807,7.867,14.807,17.573v35.147c0,9.706-6.628,17.573-14.807,17.573H513.99c-8.178,0-14.807-7.867-14.807-17.573V326.795C499.183,317.089,505.812,309.222,513.99,309.222Zm0,140.588h29.615c8.178,0,14.807,7.867,14.807,17.573V502.53c0,9.7-6.628,17.573-14.807,17.573H513.99c-8.178,0-14.807-7.869-14.807-17.573V467.383C499.183,457.677,505.812,449.81,513.99,449.81Zm0,140.586h29.615c8.178,0,14.807,7.869,14.807,17.575v35.147c0,9.7-6.628,17.573-14.807,17.573H513.99c-8.178,0-14.807-7.869-14.807-17.573V607.97C499.183,598.264,505.812,590.4,513.99,590.4ZM365.917,309.222h29.614c8.178,0,14.809,7.867,14.809,17.573v35.147c0,9.706-6.63,17.573-14.809,17.573H365.917c-8.178,0-14.808-7.867-14.808-17.573V326.795C351.108,317.089,357.739,309.222,365.917,309.222Zm0,140.588h29.614c8.178,0,14.809,7.867,14.809,17.573V502.53c0,9.7-6.63,17.573-14.809,17.573H365.917c-8.178,0-14.808-7.869-14.808-17.573V467.383C351.108,457.677,357.739,449.81,365.917,449.81Zm44.422-263.6v35.147c0,9.706-6.63,17.573-14.809,17.573H365.917c-8.178,0-14.808-7.867-14.808-17.573V186.207c0-9.706,6.63-17.573,14.808-17.573h29.614C403.709,168.634,410.339,176.5,410.339,186.207ZM247.457,660.69H217.842c-8.178,0-14.807-7.869-14.807-17.573V607.97c0-9.706,6.629-17.575,14.807-17.575h29.615c8.177,0,14.807,7.869,14.807,17.575v35.147C262.264,652.822,255.634,660.69,247.457,660.69Zm0-140.588H217.842c-8.178,0-14.807-7.869-14.807-17.573V467.383c0-9.706,6.629-17.573,14.807-17.573h29.615c8.177,0,14.807,7.867,14.807,17.573V502.53C262.264,512.234,255.634,520.1,247.457,520.1ZM351.108,643.118V607.97c0-9.706,6.63-17.575,14.808-17.575h29.614c8.178,0,14.809,7.869,14.809,17.575v35.147c0,9.7-6.63,17.573-14.809,17.573H365.917C357.739,660.69,351.108,652.822,351.108,643.118Z" transform="translate(-54.96 -98.34)" fill="#3f51b5"/>
            </g>
          </g>
        </g>
      </g>
      <path id="Tracé_168" data-name="Tracé 168" d="M458.562,332.077" transform="translate(4211.294 141.923)" fill="none" stroke="#707070" stroke-width="1"/>
      <path id="Tracé_169" data-name="Tracé 169" d="M0,332.077" transform="translate(3916.718 141.923)" fill="none" stroke="#707070" stroke-width="1"/>
      <g id="Groupe_de_masques_11" data-name="Groupe de masques 11" transform="translate(3916 -174)" clip-path="url(#clip-path)">
        <g id="business-2" data-name="business" transform="translate(50.805 0)">
          <g id="Group_7601-2" data-name="Group 7601" transform="translate(0)">
            <path id="Rectangle_1823-2" data-name="Rectangle 1823" d="M54.96,225.332c0-20.254,13.836-36.674,30.9-36.674H283.638c17.068,0,30.9,16.42,30.9,36.674v352.08c0,20.256-13.835,36.676-30.9,36.676H85.863c-17.067,0-30.9-16.42-30.9-36.676Z" transform="translate(-54.96 2.027)" fill="#b5c0ff"/>
            <path id="Rectangle_1824-2" data-name="Rectangle 1824" d="M318.378,127.506c0-20.256,13.835-36.676,30.9-36.676H503.792c17.066,0,30.9,16.42,30.9,36.676V670.3c0,20.254-13.835,36.674-30.9,36.674H349.28c-17.066,0-30.9-16.42-30.9-36.674Z" transform="translate(114.257 -90.83)" fill="#b5c0ff"/>
            <g id="Icon-color-2" data-name="Icon-color" transform="translate(0 14.638)">
              <path id="Tracé_170" data-name="Tracé 170" d="M706.487,678.263c0-9.706-6.63-17.573-14.809-17.573H617.643V274.075c0-19.412-13.26-35.147-29.615-35.147H469.568V133.487c0-19.41-13.259-35.147-29.615-35.147H321.493c-16.355,0-29.614,15.737-29.614,35.147V379.515H173.42c-16.357,0-29.615,15.735-29.615,35.147V660.69H69.768c-8.178,0-14.807,7.867-14.807,17.573v35.147c0,9.706,6.63,17.573,14.807,17.573H691.678c8.178,0,14.809-7.867,14.809-17.573ZM513.99,309.222h29.615c8.178,0,14.807,7.867,14.807,17.573v35.147c0,9.706-6.628,17.573-14.807,17.573H513.99c-8.178,0-14.807-7.867-14.807-17.573V326.795C499.183,317.089,505.812,309.222,513.99,309.222Zm0,140.588h29.615c8.178,0,14.807,7.867,14.807,17.573V502.53c0,9.7-6.628,17.573-14.807,17.573H513.99c-8.178,0-14.807-7.869-14.807-17.573V467.383C499.183,457.677,505.812,449.81,513.99,449.81Zm0,140.586h29.615c8.178,0,14.807,7.869,14.807,17.575v35.147c0,9.7-6.628,17.573-14.807,17.573H513.99c-8.178,0-14.807-7.869-14.807-17.573V607.97C499.183,598.264,505.812,590.4,513.99,590.4ZM365.917,309.222h29.614c8.178,0,14.809,7.867,14.809,17.573v35.147c0,9.706-6.63,17.573-14.809,17.573H365.917c-8.178,0-14.808-7.867-14.808-17.573V326.795C351.108,317.089,357.739,309.222,365.917,309.222Zm0,140.588h29.614c8.178,0,14.809,7.867,14.809,17.573V502.53c0,9.7-6.63,17.573-14.809,17.573H365.917c-8.178,0-14.808-7.869-14.808-17.573V467.383C351.108,457.677,357.739,449.81,365.917,449.81Zm44.422-263.6v35.147c0,9.706-6.63,17.573-14.809,17.573H365.917c-8.178,0-14.808-7.867-14.808-17.573V186.207c0-9.706,6.63-17.573,14.808-17.573h29.614C403.709,168.634,410.339,176.5,410.339,186.207ZM247.457,660.69H217.842c-8.178,0-14.807-7.869-14.807-17.573V607.97c0-9.706,6.629-17.575,14.807-17.575h29.615c8.177,0,14.807,7.869,14.807,17.575v35.147C262.264,652.822,255.634,660.69,247.457,660.69Zm0-140.588H217.842c-8.178,0-14.807-7.869-14.807-17.573V467.383c0-9.706,6.629-17.573,14.807-17.573h29.615c8.177,0,14.807,7.867,14.807,17.573V502.53C262.264,512.234,255.634,520.1,247.457,520.1ZM351.108,643.118V607.97c0-9.706,6.63-17.575,14.808-17.575h29.614c8.178,0,14.809,7.869,14.809,17.575v35.147c0,9.7-6.63,17.573-14.809,17.573H365.917C357.739,660.69,351.108,652.822,351.108,643.118Z" transform="translate(-54.96 -98.34)" fill="#3f51b5"/>
            </g>
          </g>
        </g>
      </g>
    </g>
    <g id="Groupe_252" data-name="Groupe 252" transform="translate(438 690)">
      <g id="Groupe_de_masques_10-2" data-name="Groupe de masques 10" transform="translate(0.433)" clip-path="url(#clip-path-3)">
        <g id="business-3" data-name="business" transform="translate(32.621 0)">
          <g id="Group_7601-3" data-name="Group 7601">
            <path id="Rectangle_1823-3" data-name="Rectangle 1823" d="M221.629,211.467c0-12.6-8.883-22.809-19.841-22.809H74.8c-10.959,0-19.842,10.212-19.842,22.809V430.438c0,12.6,8.883,22.81,19.842,22.81H201.788c10.958,0,19.841-10.212,19.841-22.81Z" transform="translate(196.696 -70.064)" fill="#b5c0ff"/>
            <path id="Rectangle_1824-3" data-name="Rectangle 1824" d="M457.268,113.64c0-12.6-8.883-22.81-19.841-22.81H338.219c-10.958,0-19.841,10.212-19.841,22.81V451.22c0,12.6,8.883,22.809,19.841,22.809h99.208c10.958,0,19.841-10.212,19.841-22.809Z" transform="translate(-316.724 -90.83)" fill="#b5c0ff"/>
            <g id="Icon-color-3" data-name="Icon-color" transform="translate(0 9.104)">
              <path id="Tracé_167-2" data-name="Tracé 167" d="M54.96,459.014c0-6.037,4.257-10.929,9.508-10.929H112V207.635c0-12.073,8.514-21.859,19.015-21.859h76.059V120.2c0-12.072,8.513-21.859,19.015-21.859h76.059c10.5,0,19.014,9.787,19.014,21.859V273.212h76.059c10.5,0,19.015,9.786,19.015,21.859V448.085h47.537c5.251,0,9.507,4.893,9.507,10.929v21.859c0,6.036-4.257,10.929-9.507,10.929H64.469c-5.251,0-9.508-4.893-9.508-10.929Zm123.6-229.519H159.542c-5.251,0-9.507,4.893-9.507,10.929v21.859c0,6.037,4.256,10.929,9.507,10.929h19.015c5.251,0,9.507-4.893,9.507-10.929V240.424C188.064,234.387,183.808,229.495,178.557,229.495Zm0,87.436H159.542c-5.251,0-9.507,4.893-9.507,10.929V349.72c0,6.035,4.256,10.929,9.507,10.929h19.015c5.251,0,9.507-4.894,9.507-10.929V327.86C188.064,321.824,183.808,316.931,178.557,316.931Zm0,87.435H159.542c-5.251,0-9.507,4.894-9.507,10.93v21.859c0,6.035,4.256,10.929,9.507,10.929h19.015c5.251,0,9.507-4.894,9.507-10.929V415.3C188.064,409.26,183.808,404.366,178.557,404.366ZM273.63,229.495H254.616c-5.251,0-9.508,4.893-9.508,10.929v21.859c0,6.037,4.257,10.929,9.508,10.929H273.63c5.251,0,9.508-4.893,9.508-10.929V240.424C283.138,234.387,278.881,229.495,273.63,229.495Zm0,87.436H254.616c-5.251,0-9.508,4.893-9.508,10.929V349.72c0,6.035,4.257,10.929,9.508,10.929H273.63c5.251,0,9.508-4.894,9.508-10.929V327.86C283.138,321.824,278.881,316.931,273.63,316.931ZM245.108,152.988v21.859c0,6.036,4.257,10.929,9.508,10.929H273.63c5.251,0,9.508-4.893,9.508-10.929V152.988c0-6.036-4.257-10.929-9.508-10.929H254.616C249.365,142.059,245.108,146.951,245.108,152.988Zm104.581,295.1H368.7c5.251,0,9.507-4.894,9.507-10.929V415.3c0-6.037-4.256-10.93-9.507-10.93H349.689c-5.25,0-9.507,4.894-9.507,10.93v21.859C340.182,443.191,344.439,448.085,349.689,448.085Zm0-87.436H368.7c5.251,0,9.507-4.894,9.507-10.929V327.86c0-6.037-4.256-10.929-9.507-10.929H349.689c-5.25,0-9.507,4.893-9.507,10.929V349.72C340.182,355.755,344.439,360.649,349.689,360.649Zm-66.551,76.507V415.3c0-6.037-4.257-10.93-9.508-10.93H254.616c-5.251,0-9.508,4.894-9.508,10.93v21.859c0,6.035,4.257,10.929,9.508,10.929H273.63C278.881,448.085,283.138,443.191,283.138,437.156Z" transform="translate(-54.96 -98.34)" fill="#3f51b5"/>
            </g>
          </g>
        </g>
      </g>
      <path id="Tracé_168-2" data-name="Tracé 168" d="M458.562,332.077" transform="translate(-458.562 70.923)" fill="none" stroke="#707070" stroke-width="1"/>
      <path id="Tracé_169-2" data-name="Tracé 169" d="M0,332.077" transform="translate(483.567 70.923)" fill="none" stroke="#707070" stroke-width="1"/>
      <g id="Groupe_de_masques_11-2" data-name="Groupe de masques 11" transform="translate(0.433)" clip-path="url(#clip-path-3)">
        <g id="business-4" data-name="business" transform="translate(32.621 0)">
          <g id="Group_7601-4" data-name="Group 7601">
            <path id="Rectangle_1823-4" data-name="Rectangle 1823" d="M221.629,211.467c0-12.6-8.883-22.809-19.841-22.809H74.8c-10.959,0-19.842,10.212-19.842,22.809V430.438c0,12.6,8.883,22.81,19.842,22.81H201.788c10.958,0,19.841-10.212,19.841-22.81Z" transform="translate(196.696 -70.064)" fill="#b5c0ff"/>
            <path id="Rectangle_1824-4" data-name="Rectangle 1824" d="M457.268,113.64c0-12.6-8.883-22.81-19.841-22.81H338.219c-10.958,0-19.841,10.212-19.841,22.81V451.22c0,12.6,8.883,22.809,19.841,22.809h99.208c10.958,0,19.841-10.212,19.841-22.809Z" transform="translate(-316.724 -90.83)" fill="#b5c0ff"/>
            <g id="Icon-color-4" data-name="Icon-color" transform="translate(0 9.104)">
              <path id="Tracé_170-2" data-name="Tracé 170" d="M54.96,459.014c0-6.037,4.257-10.929,9.508-10.929H112V207.635c0-12.073,8.514-21.859,19.015-21.859h76.059V120.2c0-12.072,8.513-21.859,19.015-21.859h76.059c10.5,0,19.014,9.787,19.014,21.859V273.212h76.059c10.5,0,19.015,9.786,19.015,21.859V448.085h47.537c5.251,0,9.507,4.893,9.507,10.929v21.859c0,6.036-4.257,10.929-9.507,10.929H64.469c-5.251,0-9.508-4.893-9.508-10.929Zm123.6-229.519H159.542c-5.251,0-9.507,4.893-9.507,10.929v21.859c0,6.037,4.256,10.929,9.507,10.929h19.015c5.251,0,9.507-4.893,9.507-10.929V240.424C188.064,234.387,183.808,229.495,178.557,229.495Zm0,87.436H159.542c-5.251,0-9.507,4.893-9.507,10.929V349.72c0,6.035,4.256,10.929,9.507,10.929h19.015c5.251,0,9.507-4.894,9.507-10.929V327.86C188.064,321.824,183.808,316.931,178.557,316.931Zm0,87.435H159.542c-5.251,0-9.507,4.894-9.507,10.93v21.859c0,6.035,4.256,10.929,9.507,10.929h19.015c5.251,0,9.507-4.894,9.507-10.929V415.3C188.064,409.26,183.808,404.366,178.557,404.366ZM273.63,229.495H254.616c-5.251,0-9.508,4.893-9.508,10.929v21.859c0,6.037,4.257,10.929,9.508,10.929H273.63c5.251,0,9.508-4.893,9.508-10.929V240.424C283.138,234.387,278.881,229.495,273.63,229.495Zm0,87.436H254.616c-5.251,0-9.508,4.893-9.508,10.929V349.72c0,6.035,4.257,10.929,9.508,10.929H273.63c5.251,0,9.508-4.894,9.508-10.929V327.86C283.138,321.824,278.881,316.931,273.63,316.931ZM245.108,152.988v21.859c0,6.036,4.257,10.929,9.508,10.929H273.63c5.251,0,9.508-4.893,9.508-10.929V152.988c0-6.036-4.257-10.929-9.508-10.929H254.616C249.365,142.059,245.108,146.951,245.108,152.988Zm104.581,295.1H368.7c5.251,0,9.507-4.894,9.507-10.929V415.3c0-6.037-4.256-10.93-9.507-10.93H349.689c-5.25,0-9.507,4.894-9.507,10.93v21.859C340.182,443.191,344.439,448.085,349.689,448.085Zm0-87.436H368.7c5.251,0,9.507-4.894,9.507-10.929V327.86c0-6.037-4.256-10.929-9.507-10.929H349.689c-5.25,0-9.507,4.893-9.507,10.929V349.72C340.182,355.755,344.439,360.649,349.689,360.649Zm-66.551,76.507V415.3c0-6.037-4.257-10.93-9.508-10.93H254.616c-5.251,0-9.508,4.894-9.508,10.93v21.859c0,6.035,4.257,10.929,9.508,10.929H273.63C278.881,448.085,283.138,443.191,283.138,437.156Z" transform="translate(-54.96 -98.34)" fill="#3f51b5"/>
            </g>
          </g>
        </g>
      </g>
    </g>
  </g>
</svg>
