<svg xmlns="http://www.w3.org/2000/svg" width="222.371" height="82.209" viewBox="0 0 222.371 82.209">
  <g id="car" transform="translate(985.871 -185)">
    <g id="Group" transform="translate(-985.871 185)">
      <g id="Group_2">
        <path id="Vector" d="M6.642,46.621l.581-5.458c0-2.649,1.435-2.48,4.061-2.48h6.311c2.678-.367,12.758-1.519,12.758-1.519,27.1-13.68,45.969-16.912,45.969-16.912s16.321-.569,36.985,0,39.811,17.863,41.31,18.62h2.711c47.316,0,66.779,15.96,66.779,15.96a32.836,32.836,0,0,1,1.2,9.687,103.883,103.883,0,0,1-1.2,13.688L226.5,79.54v3.61c-4.286,2.752-11,4.348-18.064,5.255a21.8,21.8,0,0,0,1.594-8.212c0-11.468-8.764-20.8-19.541-20.8s-19.542,9.333-19.542,20.8a21.73,21.73,0,0,0,1.927,8.947c-13.778-.257-50.964-.967-66.313-1.43-8.548-.257-22.681.052-36.016.46A24.436,24.436,0,0,0,71.9,80.19C71.9,67.4,62.127,57,50.117,57S28.335,67.4,28.335,80.19a24.428,24.428,0,0,0,1,6.945c-7.121-2.487-16.273-6.313-16.273-6.313C-1.2,69.419,5.875,51.6,5.949,51.035S6.642,46.621,6.642,46.621Z" transform="translate(-4.129 -20)" fill="#3949a2"/>
        <path id="Vector_2" d="M27.543,59.766A18.421,18.421,0,0,1,11.21,50.58a14.608,14.608,0,0,1-1.863-7.011c0-8.944,8.148-16.2,18.192-16.2s18.193,7.255,18.193,16.2a14.638,14.638,0,0,1-1.72,6.777C41.127,55.9,34.863,59.766,27.543,59.766Z" transform="translate(18.448 18.081)" fill="#b5c0ff"/>
      </g>
      <g id="Group_3">
        <path id="Vector_3" d="M6.642,46.621l.581-5.458c0-2.649,1.435-2.48,4.061-2.48h6.311c2.678-.367,12.758-1.519,12.758-1.519,27.1-13.68,45.969-16.912,45.969-16.912s16.321-.569,36.985,0,39.811,17.863,41.31,18.62h2.711c47.316,0,66.779,15.96,66.779,15.96a32.836,32.836,0,0,1,1.2,9.687,103.883,103.883,0,0,1-1.2,13.688L226.5,79.54v3.61c-4.286,2.752-11,4.348-18.064,5.255a21.8,21.8,0,0,0,1.594-8.212c0-11.468-8.764-20.8-19.541-20.8s-19.542,9.333-19.542,20.8a21.73,21.73,0,0,0,1.927,8.947c-13.778-.257-50.964-.967-66.313-1.43-8.548-.257-22.681.052-36.016.46A24.436,24.436,0,0,0,71.9,80.19C71.9,67.4,62.127,57,50.117,57S28.335,67.4,28.335,80.19a24.428,24.428,0,0,0,1,6.945c-7.121-2.487-16.273-6.313-16.273-6.313C-1.2,69.419,5.875,51.6,5.949,51.035S6.642,46.621,6.642,46.621Z" transform="translate(-4.129 -20)" fill="#00004f"/>
        <path id="Vector_4" d="M30.8,71.092A22.392,22.392,0,1,1,50.818,58.149,22.043,22.043,0,0,1,30.8,71.092Z" transform="translate(15.545 10.43)" fill="#b5c0ff"/>
        <path id="Vector_5" d="M55.34,69.15A20.252,20.252,0,0,1,37.064,57.079a21.845,21.845,0,0,1-2.085-9.213c0-11.754,9.117-21.284,20.356-21.284s20.356,9.533,20.356,21.284a21.964,21.964,0,0,1-1.924,8.906A20.278,20.278,0,0,1,55.34,69.15Z" transform="matrix(0.999, 0.035, -0.035, 0.999, 132.71, 10.459)" fill="#b5c0ff"/>
      </g>
    </g>
  </g>
</svg>
