<?xml version="1.0" encoding="UTF-8" standalone="no"?><!DOCTYPE svg PUBLIC "-//W3C//DTD SVG 1.1//EN" "http://www.w3.org/Graphics/SVG/1.1/DTD/svg11.dtd"><svg width="100%" height="100%" viewBox="0 0 209 209" version="1.1" xmlns="http://www.w3.org/2000/svg" xmlns:xlink="http://www.w3.org/1999/xlink" xml:space="preserve" xmlns:serif="http://www.serif.com/" style="fill-rule:evenodd;clip-rule:evenodd;stroke-linejoin:round;stroke-miterlimit:2;"><g id="car"><g id="Group"><g id="Group_2"><path id="Vector" d="M19.17,103.369l0.455,-4.108c-0,-1.993 1.122,-1.866 3.176,-1.866l4.936,0c2.094,-0.276 9.978,-1.143 9.978,-1.143c21.197,-10.296 35.953,-12.728 35.953,-12.728c0,-0 12.766,-0.429 28.927,-0c16.161,0.429 31.137,13.444 32.31,14.014l2.12,-0c37.008,-0 52.23,12.011 52.23,12.011c0,0 0.936,2.64 0.936,7.291c-0,4.65 -0.936,10.302 -0.936,10.302l1.873,1.003l-0,2.716c-3.353,2.072 -8.601,3.273 -14.129,3.956c0.8,-1.895 1.247,-3.987 1.247,-6.181c0,-8.631 -6.854,-15.658 -15.284,-15.658c-8.426,-0 -15.284,7.024 -15.284,15.658c0,2.413 0.551,4.691 1.507,6.734c-10.775,-0.194 -39.86,-0.728 -51.865,-1.076c-6.685,-0.194 -17.739,0.039 -28.169,0.346c0.673,-1.878 1.06,-3.895 1.06,-6.006c-0,-9.625 -7.644,-17.454 -17.037,-17.454c-9.396,-0 -17.037,7.832 -17.037,17.454c-0,1.821 0.274,3.576 0.782,5.226c-5.569,-1.872 -12.727,-4.751 -12.727,-4.751c-11.155,-8.581 -5.622,-21.989 -5.564,-22.418c0.057,-0.428 0.542,-3.322 0.542,-3.322Z" style="fill:#3949a2;fill-rule:nonzero;"/><path id="Vector_2" d="M53.176,143.206c-5.641,0 -10.472,-3.388 -12.775,-8.266c-0.905,-1.918 -1.457,-4.038 -1.457,-6.31c-0,-8.05 6.373,-14.576 14.229,-14.576c7.858,0 14.229,6.529 14.229,14.576c-0,2.185 -0.505,4.238 -1.345,6.099c-2.257,4.994 -7.156,8.477 -12.881,8.477Z" style="fill:#b5c0ff;fill-rule:nonzero;"/></g><g id="Group_3"><path id="Vector_3" d="M19.17,103.369l0.455,-4.108c-0,-1.993 1.122,-1.866 3.176,-1.866l4.936,0c2.094,-0.276 9.978,-1.143 9.978,-1.143c21.197,-10.296 35.953,-12.728 35.953,-12.728c0,-0 12.766,-0.429 28.927,-0c16.161,0.429 31.137,13.444 32.31,14.014l2.12,-0c37.008,-0 52.23,12.011 52.23,12.011c0,0 0.936,2.64 0.936,7.291c-0,4.65 -0.936,10.302 -0.936,10.302l1.873,1.003l-0,2.716c-3.353,2.072 -8.601,3.273 -14.129,3.956c0.8,-1.895 1.247,-3.987 1.247,-6.181c0,-8.631 -6.854,-15.658 -15.284,-15.658c-8.426,-0 -15.284,7.024 -15.284,15.658c0,2.413 0.551,4.691 1.507,6.734c-10.775,-0.194 -39.86,-0.728 -51.865,-1.076c-6.685,-0.194 -17.739,0.039 -28.169,0.346c0.673,-1.878 1.06,-3.895 1.06,-6.006c-0,-9.625 -7.644,-17.454 -17.037,-17.454c-9.396,-0 -17.037,7.832 -17.037,17.454c-0,1.821 0.274,3.576 0.782,5.226c-5.569,-1.872 -12.727,-4.751 -12.727,-4.751c-11.155,-8.581 -5.622,-21.989 -5.564,-22.418c0.057,-0.428 0.542,-3.322 0.542,-3.322Z" style="fill:#b5c0ff;fill-rule:nonzero;"/><path id="Vector_4" d="M53.605,146.514c-6.919,-0 -12.844,-4.156 -15.669,-10.139c-1.11,-2.352 -1.787,-4.953 -1.787,-7.739c0,-9.873 7.817,-17.878 17.452,-17.878c9.638,0 17.452,8.008 17.452,17.878c-0,2.679 -0.62,5.197 -1.649,7.48c-2.768,6.125 -8.777,10.398 -15.799,10.398Z" style="fill:#3949a2;fill-rule:nonzero;"/><path id="Vector_5" d="M163.203,146.514c-6.918,-0 -12.843,-4.156 -15.668,-10.139c-1.11,-2.352 -1.787,-4.953 -1.787,-7.739c-0,-9.873 7.817,-17.878 17.452,-17.878c9.638,0 17.452,8.008 17.452,17.878c-0,2.679 -0.62,5.197 -1.649,7.48c-2.768,6.125 -8.777,10.398 -15.8,10.398Z" style="fill:#3949a2;fill-rule:nonzero;"/></g></g></g></svg>