<svg xmlns="http://www.w3.org/2000/svg" width="117" height="113.133" viewBox="0 0 117 113.133">
  <g id="Group_212" data-name="Group 212" transform="translate(0 72.909)">
    <path id="Path_112" data-name="Path 112" d="M72.281-70.229a2.68,2.68,0,0,0-2.68-2.68H5.66a2.68,2.68,0,0,0-2.68,2.68V32.363a2.68,2.68,0,0,0,2.68,2.68H69.6a2.68,2.68,0,0,0,2.68-2.68Z" transform="translate(1.644 0)" fill="#3f50b4" fill-rule="evenodd"/>
    <path id="Path_113" data-name="Path 113" d="M64.361-46.825c-.1-.068,17.114-1.023,17.125-1.027.086-.027-.289,14.085-6.739,14.887C67.252-32.034,64.243-46.847,64.361-46.825Z" transform="translate(35.505 13.824)" fill="#3f50b4" fill-rule="evenodd"/>
    <path id="Path_114" data-name="Path 114" d="M66.449-43.636a1.463,1.463,0,0,0-.011.18A1.552,1.552,0,0,0,67.986-41.9a1.69,1.69,0,0,0,1.567-1.717c-.008-.9-.389-5.432-.468-6.419l-.01-.129a1.543,1.543,0,0,0-.088-.454,1.552,1.552,0,0,0-1.981-.943,1.713,1.713,0,0,0-1.017,1.737C66.057-48.963,66.427-44.637,66.449-43.636Zm.33-.787-.008.011.023-.03Zm.016-.02a1.549,1.549,0,0,1,1.2-.562A1.446,1.446,0,0,0,66.8-44.443Z" transform="translate(36.401 11.727)" fill="#3f50b4" fill-rule="evenodd"/>
    <path id="Path_115" data-name="Path 115" d="M71.141-50.008l.006.067c.074.912.357,5.477.422,6.468.01.15.017.239.019.256a1.328,1.328,0,0,0,.262.708,1.49,1.49,0,0,0,.783.594,1.493,1.493,0,0,0,1.2-.088,1.552,1.552,0,0,0,.84-1.52l-.011-.155c-.066-1-.351-5.6-.426-6.514a1.681,1.681,0,0,0-.893-1.433,1.552,1.552,0,0,0-2.069.73A1.542,1.542,0,0,0,71.141-50.008Z" transform="translate(39.239 11.658)" fill="#3f50b4" fill-rule="evenodd"/>
    <path id="Path_116" data-name="Path 116" d="M0,3.007H78.549V-5.45H0Z" transform="translate(0 37.216)" fill="#3f50b4" fill-rule="evenodd"/>
    <path id="Path_117" data-name="Path 117" d="M48.318-39.7a2.328,2.328,0,0,0-2.658,1.666,2.329,2.329,0,0,0,1.618,2.867,11.4,11.4,0,0,0,2.111.151c2.413.014,7.121-.108,9.982-.133-.175,2.579-.32,5.48-.3,8.463.044,5.706.724,11.693,2.849,16.431,2.336,5.208,6.333,9,12.927,9.75,8,.906,11.876-4.876,13.233-12.7,1.737-10.011-.7-23.3-.886-24.552a2.329,2.329,0,0,0-2.647-1.957,2.329,2.329,0,0,0-1.957,2.647c.177,1.177,2.536,13.66.9,23.066-.89,5.129-2.878,9.463-8.122,8.868-4.716-.535-7.533-3.3-9.2-7.03-1.882-4.2-2.4-9.51-2.441-14.562-.03-3.824.23-7.509.461-10.509a2.221,2.221,0,0,0-.743-1.894,2.853,2.853,0,0,0-1.833-.661c-1.5-.071-7.274.083-10.862.112C49.626-39.663,48.468-39.692,48.318-39.7Z" transform="translate(25.143 18.265)" fill="#3f50b4" fill-rule="evenodd"/>
    <path id="Path_118" data-name="Path 118" d="M58.921-63.346a3.367,3.367,0,0,0-3.367-3.367H12.7a3.367,3.367,0,0,0-3.367,3.367v43.1A3.367,3.367,0,0,0,12.7-16.875H55.554a3.367,3.367,0,0,0,3.367-3.367Z" transform="translate(5.148 3.419)" fill="#b4bfff" fill-rule="evenodd"/>
    <path id="Path_119" data-name="Path 119" d="M29.548-57.253c-.1.062-8.078,13-8.1,13.03-.053.078.224.457.246.455.042,0,4.93-.083,4.937-.077.048.048-.8,8.212-.753,8.176.228-.16,8.13-13.037,8.112-13.09a1.288,1.288,0,0,0-.232-.329c-.079-.027-4.985.007-4.985.015C28.779-48.96,29.548-57.253,29.548-57.253Z" transform="translate(11.83 8.638)" fill="#ee6b5f" stroke="#ee6b5f" stroke-linecap="round" stroke-linejoin="round" stroke-width="1" fill-rule="evenodd"/>
  </g>
</svg>
