<svg xmlns="http://www.w3.org/2000/svg" width="296.267" height="249.138" viewBox="0 0 296.267 249.138">
  <g id="customers" transform="translate(-3.915 -7.27)">
    <g id="Group_7459" data-name="Group 7459" transform="translate(3.915 7.27)">
      <ellipse id="Ellipse_321" data-name="Ellipse 321" cx="112.827" cy="112.276" rx="112.827" ry="112.276" transform="translate(70.613)" fill="#b5c0ff"/>
      <g id="Icon-color" transform="translate(0 73.426)">
        <path id="Path_179" data-name="Path 179" d="M54.341,55.373A37.848,37.848,0,1,1,92.188,93.026,37.75,37.75,0,0,1,54.341,55.373Zm106.6,83.588a37.868,37.868,0,0,0-33.937-20.834H57.369a37.869,37.869,0,0,0-33.937,20.834L5.265,175.234a12.494,12.494,0,0,0,.514,12.213,12.631,12.631,0,0,0,10.714,5.986h151.39a12.63,12.63,0,0,0,10.713-5.986,12.493,12.493,0,0,0,.514-12.213Z" transform="translate(-3.915 -17.721)" fill="#3f51b5"/>
      </g>
      <g id="Icon-color_2" transform="translate(141.245 73.426)">
        <path id="Path_180" data-name="Path 180" d="M61.867,93.026A37.653,37.653,0,1,0,24.02,55.373,37.75,37.75,0,0,0,61.867,93.026Zm86.923,82.208-18.167-36.272a37.868,37.868,0,0,0-33.811-20.834H46.35a61.281,61.281,0,0,1,6.055,9.539l18.293,36.4a37.478,37.478,0,0,1,1.64,29.369h65.224a12.631,12.631,0,0,0,10.714-5.986A12.5,12.5,0,0,0,148.791,175.234Z" transform="translate(-24.02 -17.721)" fill="#3f51b5"/>
      </g>
    </g>
  </g>
</svg>
