<svg xmlns="http://www.w3.org/2000/svg" xmlns:xlink="http://www.w3.org/1999/xlink" width="658.813" height="477.093" viewBox="0 0 658.813 477.093">
  <defs>
    <clipPath id="clip-path">
      <rect id="Rectangle_19" data-name="Rectangle 19" width="658.812" height="477.093" fill="#fff" stroke="#707070" stroke-width="1"/>
    </clipPath>
  </defs>
  <g id="Group_232" data-name="Group 232" transform="translate(-3916 174)">
    <g id="Mask_Group_10" data-name="Mask Group 10" transform="translate(3916 -174)" clip-path="url(#clip-path)">
      <g id="business" transform="translate(44.442 0)">
        <g id="Group_7601" data-name="Group 7601" transform="translate(0)">
          <path id="Rectangle_1823" data-name="Rectangle 1823" d="M54.96,215.69a27.032,27.032,0,0,1,27.032-27.031H255a27.032,27.032,0,0,1,27.033,27.031V475.2A27.032,27.032,0,0,1,255,502.231H81.992A27.032,27.032,0,0,1,54.96,475.2Z" transform="translate(-54.96 -48.109)" fill="#b5c0ff"/>
          <path id="Rectangle_1824" data-name="Rectangle 1824" d="M318.378,117.863A27.032,27.032,0,0,1,345.409,90.83H480.57A27.032,27.032,0,0,1,507.6,117.863V517.938a27.032,27.032,0,0,1-27.031,27.031H345.409a27.032,27.032,0,0,1-27.031-27.031Z" transform="translate(60.072 -90.83)" fill="#b5c0ff"/>
          <g id="Icon-color" transform="translate(0 10.79)">
            <path id="Path_167" data-name="Path 167" d="M624.888,525.785a12.953,12.953,0,0,0-12.954-12.952H547.171V227.869a25.907,25.907,0,0,0-25.906-25.906H417.641V124.246A25.906,25.906,0,0,0,391.735,98.34H288.112a25.906,25.906,0,0,0-25.9,25.906v181.34H158.584a25.906,25.906,0,0,0-25.906,25.906v181.34H67.913A12.952,12.952,0,0,0,54.96,525.785v25.906a12.952,12.952,0,0,0,12.953,12.952H611.934a12.953,12.953,0,0,0,12.954-12.952ZM456.5,253.775h25.906a12.952,12.952,0,0,1,12.952,12.952v25.906a12.952,12.952,0,0,1-12.952,12.952H456.5a12.952,12.952,0,0,1-12.952-12.952V266.728A12.952,12.952,0,0,1,456.5,253.775Zm0,103.623h25.906a12.952,12.952,0,0,1,12.952,12.952v25.906a12.952,12.952,0,0,1-12.952,12.952H456.5a12.952,12.952,0,0,1-12.952-12.952V370.351A12.952,12.952,0,0,1,456.5,357.4Zm0,103.622h25.906a12.953,12.953,0,0,1,12.952,12.954v25.906a12.952,12.952,0,0,1-12.952,12.952H456.5a12.952,12.952,0,0,1-12.952-12.952V473.974A12.953,12.953,0,0,1,456.5,461.021ZM326.972,253.775h25.9a12.953,12.953,0,0,1,12.954,12.952v25.906a12.953,12.953,0,0,1-12.954,12.952h-25.9a12.953,12.953,0,0,1-12.954-12.952V266.728A12.953,12.953,0,0,1,326.972,253.775Zm0,103.623h25.9a12.953,12.953,0,0,1,12.954,12.952v25.906a12.954,12.954,0,0,1-12.954,12.952h-25.9a12.954,12.954,0,0,1-12.954-12.952V370.351A12.953,12.953,0,0,1,326.972,357.4ZM365.83,163.1v25.906a12.953,12.953,0,0,1-12.954,12.952h-25.9a12.953,12.953,0,0,1-12.954-12.952V163.1a12.953,12.953,0,0,1,12.954-12.952h25.9A12.953,12.953,0,0,1,365.83,163.1ZM223.348,512.833H197.442a12.952,12.952,0,0,1-12.952-12.952V473.974a12.953,12.953,0,0,1,12.952-12.954h25.906A12.954,12.954,0,0,1,236.3,473.974v25.906A12.953,12.953,0,0,1,223.348,512.833Zm0-103.623H197.442a12.952,12.952,0,0,1-12.952-12.952V370.351A12.952,12.952,0,0,1,197.442,357.4h25.906A12.952,12.952,0,0,1,236.3,370.351v25.906A12.953,12.953,0,0,1,223.348,409.21Zm90.669,90.671V473.974a12.954,12.954,0,0,1,12.954-12.954h25.9a12.954,12.954,0,0,1,12.954,12.954v25.906a12.954,12.954,0,0,1-12.954,12.952h-25.9A12.954,12.954,0,0,1,314.018,499.881Z" transform="translate(-54.96 -98.34)" fill="#3f51b5"/>
          </g>
        </g>
      </g>
    </g>
    <path id="Path_168" data-name="Path 168" transform="translate(4116.969 -28.266)" fill="#707070"/>
    <path id="Path_169" data-name="Path 169" transform="translate(3916.718 -28.266)" fill="#707070"/>
    <g id="Mask_Group_11" data-name="Mask Group 11" transform="translate(3916 -174)" clip-path="url(#clip-path)">
      <g id="business-2" data-name="business" transform="translate(44.442 0)">
        <g id="Group_7601-2" data-name="Group 7601" transform="translate(0)">
          <path id="Rectangle_1823-2" data-name="Rectangle 1823" d="M54.96,215.69a27.032,27.032,0,0,1,27.032-27.031H255a27.032,27.032,0,0,1,27.033,27.031V475.2A27.032,27.032,0,0,1,255,502.231H81.992A27.032,27.032,0,0,1,54.96,475.2Z" transform="translate(-54.96 -48.109)" fill="#b5c0ff"/>
          <path id="Rectangle_1824-2" data-name="Rectangle 1824" d="M318.378,117.863A27.032,27.032,0,0,1,345.409,90.83H480.57A27.032,27.032,0,0,1,507.6,117.863V517.938a27.032,27.032,0,0,1-27.031,27.031H345.409a27.032,27.032,0,0,1-27.031-27.031Z" transform="translate(60.072 -90.83)" fill="#b5c0ff"/>
          <g id="Icon-color-2" data-name="Icon-color" transform="translate(0 10.79)">
            <path id="Path_170" data-name="Path 170" d="M624.888,525.785a12.953,12.953,0,0,0-12.954-12.952H547.171V227.869a25.907,25.907,0,0,0-25.906-25.906H417.641V124.246A25.906,25.906,0,0,0,391.735,98.34H288.112a25.906,25.906,0,0,0-25.9,25.906v181.34H158.584a25.906,25.906,0,0,0-25.906,25.906v181.34H67.913A12.952,12.952,0,0,0,54.96,525.785v25.906a12.952,12.952,0,0,0,12.953,12.952H611.934a12.953,12.953,0,0,0,12.954-12.952ZM456.5,253.775h25.906a12.952,12.952,0,0,1,12.952,12.952v25.906a12.952,12.952,0,0,1-12.952,12.952H456.5a12.952,12.952,0,0,1-12.952-12.952V266.728A12.952,12.952,0,0,1,456.5,253.775Zm0,103.623h25.906a12.952,12.952,0,0,1,12.952,12.952v25.906a12.952,12.952,0,0,1-12.952,12.952H456.5a12.952,12.952,0,0,1-12.952-12.952V370.351A12.952,12.952,0,0,1,456.5,357.4Zm0,103.622h25.906a12.953,12.953,0,0,1,12.952,12.954v25.906a12.952,12.952,0,0,1-12.952,12.952H456.5a12.952,12.952,0,0,1-12.952-12.952V473.974A12.953,12.953,0,0,1,456.5,461.021ZM326.972,253.775h25.9a12.953,12.953,0,0,1,12.954,12.952v25.906a12.953,12.953,0,0,1-12.954,12.952h-25.9a12.953,12.953,0,0,1-12.954-12.952V266.728A12.953,12.953,0,0,1,326.972,253.775Zm0,103.623h25.9a12.953,12.953,0,0,1,12.954,12.952v25.906a12.954,12.954,0,0,1-12.954,12.952h-25.9a12.954,12.954,0,0,1-12.954-12.952V370.351A12.953,12.953,0,0,1,326.972,357.4ZM365.83,163.1v25.906a12.953,12.953,0,0,1-12.954,12.952h-25.9a12.953,12.953,0,0,1-12.954-12.952V163.1a12.953,12.953,0,0,1,12.954-12.952h25.9A12.953,12.953,0,0,1,365.83,163.1ZM223.348,512.833H197.442a12.952,12.952,0,0,1-12.952-12.952V473.974a12.953,12.953,0,0,1,12.952-12.954h25.906A12.954,12.954,0,0,1,236.3,473.974v25.906A12.953,12.953,0,0,1,223.348,512.833Zm0-103.623H197.442a12.952,12.952,0,0,1-12.952-12.952V370.351A12.952,12.952,0,0,1,197.442,357.4h25.906A12.952,12.952,0,0,1,236.3,370.351v25.906A12.953,12.953,0,0,1,223.348,409.21Zm90.669,90.671V473.974a12.954,12.954,0,0,1,12.954-12.954h25.9a12.954,12.954,0,0,1,12.954,12.954v25.906a12.954,12.954,0,0,1-12.954,12.952h-25.9A12.954,12.954,0,0,1,314.018,499.881Z" transform="translate(-54.96 -98.34)" fill="#3f51b5"/>
          </g>
        </g>
      </g>
    </g>
  </g>
</svg>
