<svg xmlns="http://www.w3.org/2000/svg" width="194.642" height="158.025" viewBox="0 0 194.642 158.025">
  <g id="Envelope_Pink" data-name="Envelope Pink" transform="matrix(0.94, 0.342, -0.342, 0.94, -804.039, -968.281)">
    <path id="Path_178" data-name="Path 178" d="M12.41,0H154.945a12.41,12.41,0,0,1,12.41,12.41v81.9a12.41,12.41,0,0,1-12.41,12.41H12.41A12.41,12.41,0,0,1,0,94.314V12.41A12.41,12.41,0,0,1,12.41,0Z" transform="translate(1122.017 622.573)" fill="#ffa8a0"/>
    <path id="Polygon_5" data-name="Polygon 5" d="M80.2,2.8a7,7,0,0,1,8.02,0L150.194,46.12a7,7,0,0,1-4.01,12.737H22.234a7,7,0,0,1-4.01-12.737Z" transform="translate(1120.954 670.084)" fill="#ff5252"/>
    <path id="Polygon_6" data-name="Polygon 6" d="M80.2,2.8a7,7,0,0,1,8.02,0L150.194,46.12a7,7,0,0,1-4.01,12.737H22.234a7,7,0,0,1-4.01-12.737Z" transform="translate(1289.326 681.304) rotate(180)" fill="#ffe2df"/>
  </g>
</svg>
