<svg xmlns="http://www.w3.org/2000/svg" width="453.012" height="444.113" viewBox="0 0 453.012 444.113">
  <g id="Envelope_Pink" data-name="Envelope Pink" transform="matrix(0.94, 0.342, -0.342, 0.94, -761.355, -867.601)">
    <path id="Path_178" data-name="Path 178" d="M26.97,0H336.739a26.97,26.97,0,0,1,26.97,26.97v178a26.97,26.97,0,0,1-26.97,26.97H26.97A26.97,26.97,0,0,1,0,204.971v-178A26.97,26.97,0,0,1,26.97,0Z" transform="translate(1123.319 622.721)" fill="#3f51b5"/>
    <path id="Path_181" data-name="Path 181" d="M179,2.8a7,7,0,0,1,8.02,0L347.8,115.177a7,7,0,0,1-4.01,12.737H22.234a7,7,0,0,1-4.01-12.737Z" transform="translate(1126.324 506.253)" fill="#3f51b5"/>
    <path id="Polygon_7" data-name="Polygon 7" d="M179,2.8a7,7,0,0,1,8.02,0L347.8,115.177a7,7,0,0,1-4.01,12.737H22.234a7,7,0,0,1-4.01-12.737Z" transform="translate(1492.429 765.474) rotate(180)" fill="#b5c0ff"/>
    <path id="Polygon_5" data-name="Polygon 5" d="M179,2.8a7,7,0,0,1,8.02,0L347.8,115.177a7,7,0,0,1-4.01,12.737H22.234a7,7,0,0,1-4.01-12.737Z" transform="translate(1121.008 725.977)" fill="#00004f"/>
  </g>
</svg>
