<svg xmlns="http://www.w3.org/2000/svg" width="366.567" height="345.746" viewBox="0 0 366.567 345.746">
  <path id="green_energy" data-name="green energy" d="M216.851,320.932c.109.282.265,1.925,0,1.771-.394-.224-3.407-7.143-3.853-12.621-.963-11.861,1.1-27.308-.712-26.238-2.978,1.762-5.052,18.032-2.962,31.56,1.156,7.47,4.294,9.667,4.623,21.752.088,3.253,3.654,23.495,4.51,25.448-4.261-.634-8.106-7.738-13.615-19.181-5-10.385-6.807-24.859-8.075-25.884-.887-.716-1.868,12.2.476,21.185.87,3.338,12.85,33.625,24.351,38.018.829.317,3.4,16.457,6.456,19.957,5.651,6.479,14.359,12.623,18.433,14.534,13.429,7.624,19.718,6.36,27.648,6.2,15.574-.324,26.356-3.969,39.506-10.737,16.321-8.4,28.481-21.626,32-31.123,6.347-17.137-2.95-21.547,10.107-41.942,19.225-30.031,41.9-26.863,47.171-31.31,3.139-2.647-3.892-8.919.094-14.555,5.452-7.7,32.636-18.682,33.576-18.951,2.414-.7,3.652,2.573,5.507,3.577,1.431.774,20.753-10.849,24.583-9.5,4.514,1.587,3.412,4.388,3.124,4.836-1.583,2.475-23.333,9.32-25.394,10.915-.306.236,8.512,12.763,9.4,14.413.068.124,21.814-9.167,23.257-8.978,3.995.525,5.44,2.081,4.413,5.932-.172.646-21.641,9.185-23.4,9.861-2.65,1.016,4.286,4.011.616,6.479-11.329,7.619-32.332,12.4-35.5,11.719-6.2-1.333-10.272-5.575-13.244-7.027-2.5-1.224-37.944,5.833-48.917,34.976-4.789,12.721.322,21.444-4.684,33.407-5.538,13.234-13.166,18.867-23.068,27.248-5.247,4.442-27.914,15.247-34.779,17.1-22.454,6.069-42.807,2.783-53.142-1.047-17.325-6.421-25.663-21.906-37.078-29.5-14.915-9.921-29.975-29.8-36.347-45.086-8.161-19.573-3.393-32.158,7.246-50.873,12.318-21.663,60.425-52.554,79.925-63.247,1.195-.655-.415,23.878,6.062,39.348C278.9,306.207,284.912,310.27,286.5,322c2.365,17.457-3.459,35.416-7.786,42.1-4.715,7.29-11.136,23.474-34.861,33.5-5.111,2.158-15.67-38.264-17.314-42.339-.911-2.258,28.7-12.113,37.375-40.691.653-2.146-26.621,34.992-38.937,32.738-2.051-.377-2.248-20.524,1.856-39.639,5.415-25.224,19.646-39.57,16.735-38.3-1.4.611-13.979,8.085-20.371,22.344C218.1,303.08,216.305,314.838,216.851,320.932Z" transform="matrix(0.788, 0.616, -0.616, 0.788, 130.847, -287.588)" fill="#3f51b5" stroke="#3f51b5" stroke-linecap="round" stroke-linejoin="round" stroke-miterlimit="1.5" stroke-width="0.2" fill-rule="evenodd"/>
</svg>
