<svg xmlns="http://www.w3.org/2000/svg" width="260.006" height="423.568" viewBox="0 0 260.006 423.568">
  <g id="handphonePurple" transform="translate(0 0)">
    <path id="Tracé_201" data-name="Tracé 201" d="M204.11,384.641c-.27.432-.769-1.653-.873-1.866a33.3,33.3,0,0,0-2.475-4.023c-3.038-4.4-7.152-9.384-12.851-9.827a33.978,33.978,0,0,0-11.315,1.441c-1.132.376-5.437,1.36-6.454,1.585a70.68,70.68,0,0,1-11.539,2c-2.475.142-6.545,1.733-11.358-5.615-3.457-5.275,4.731-10.335,7.994-11.964,1.082-.54,12.179-5.894,11.965-6.055,0,0-1.535,1.433-12.929-17.694a27.5,27.5,0,0,1-2.993-.332c-2.825-.406-12.669-2.84-14.913-4.124-4.653-2.664-10.658-9.385-9.387-15.3.649-3.017,2.585-6.47,5.855-6.66,2.541-.147,6.172-.147,8.688-.034,1.362.059,2.956.178,4.3.279,3.848.289,6.406.85,9.778,1.273,2.17.273,5.506.783,9.315,1.6,0,0,1.763.914,20.817-42.088,0,0-7.45-8.9-9.47-11.05-1.359-1.444-13.051-13.486-6.069-23.331.945-1.334,2.925-3.466,4.757-3.751,5.534-.863,10.855,4.675,14.244,8.279.847.9,7.57,7.353,7.373,6.974L209.28,252c.59.755,11.293-1.192,15.309,1.711,22.837,16.512,81.515,64.31,81.635,66.075.395,5.793,2.851,21.046,3.032,23.528a168.2,168.2,0,0,0,3.073,24.021c1.022,5.111,4.7,13.06,4.7,18.449,0,.666.635,6.5-.5,9.284a68.433,68.433,0,0,1-5.48,10.466c-7.042,10.564-12.141,20.031-19.653,30.547-5.618,7.865-11.363,16.582-16.955,24.409-5.038,7.055-18.278,23.232-23.487,36.644-1.694,4.358-5.506,18.228-7.022,23.45-1.284,4.42-73.654,2.193-72.471,1.27l-5.434.508c.6.811-7.535-10.02-4.888-29.7a28.184,28.184,0,0,1,3.212-10.162,133.1,133.1,0,0,1,9.154-15.607l2.674,12.811c0,1.348-1-4.385-1.3-5.564-1.167-4.665-1.039-9.663-1.039-14.553,0-14.183,1.948-28.067,8.315-40.8,5.957-11.915,14.977-22.215,22.333-33.347a80.632,80.632,0,0,0,9.63-18.886c6.81-20.429,2.914-77.968,22.584-88.7,3.951-2.157,10.894-1.583,13.511,1.034,6.486,6.486,5.8,16.813,5.8,26.153,0,26-5.685,47.82-6.133,74.558-.156,9.323,1.661,22.973,1.661,31.912" transform="translate(-126.027 -100.447)" fill="#b8b5ff" fill-rule="evenodd"/>
    <path id="Tracé_202" data-name="Tracé 202" d="M185.105,267.646c-11.833,26.685-16.913,36.237-19.056,39.65A13.037,13.037,0,0,1,165,308.767c-3.686-.777-6.9-1.267-9.022-1.533-3.385-.424-5.954-.987-9.817-1.276-1.354-.1-2.957-.221-4.327-.282-2.539-.112-6.2-.112-8.768.036a6.093,6.093,0,0,0-4.484,2.572,12.041,12.041,0,0,0-2.089,4.7,11.26,11.26,0,0,0,1.494,7.71,23.348,23.348,0,0,0,8.269,8.426c2.285,1.309,12.311,3.807,15.189,4.221.34.048,1.869.261,2.656.332,6.989,11.7,10.3,15.646,11.79,16.96-2.845,1.5-9.878,4.9-10.727,5.32-2.037,1.015-5.9,3.33-7.905,6.192-1.468,2.1-1.976,4.481-.393,6.9,2.036,3.11,3.965,4.687,5.693,5.475,2.6,1.184,4.784.582,6.361.491A71.325,71.325,0,0,0,170.588,373c1.029-.228,5.386-1.226,6.531-1.607a33.033,33.033,0,0,1,11.011-1.405c5.464.424,9.354,5.278,12.269,9.494a32.583,32.583,0,0,1,2.407,3.9c.022.076.248.847.416,1.3a2.8,2.8,0,0,0,.385.738,1.06,1.06,0,0,0,.275.234c-7.33,11.02-16.234,21.254-22.141,33.068-6.422,12.842-8.4,26.843-8.4,41.147,0,2.6-.033,5.224.106,7.816l-.423-.337a.787.787,0,0,1,.112-.605,133.438,133.438,0,0,0-9.2,15.684,28.884,28.884,0,0,0-3.291,10.413c-2.424,18.03,4.07,28.756,4.943,30.121l.028.042a.555.555,0,0,0,.064.1c.02.028.041.055.062.08.482.654.9.757,1.167.58a.454.454,0,0,0,.429-.437l4.188-.391a2,2,0,0,0,.306.086,15.21,15.21,0,0,0,1.546.195c8.719.8,48.142,1.859,64.156.209a24.322,24.322,0,0,0,6.183-1.189,2.027,2.027,0,0,0,1.245-1.157c1.511-5.207,5.311-19.037,7-23.384,5.186-13.353,18.379-29.45,23.4-36.473,5.59-7.829,11.337-16.545,16.955-24.411,7.517-10.522,12.62-20,19.668-30.566a69.285,69.285,0,0,0,5.553-10.607c1.17-2.873.555-8.889.555-9.577,0-5.431-3.686-13.45-4.717-18.6a167.507,167.507,0,0,1-3.059-23.924c-.181-2.482-2.638-17.733-3.032-23.525a1.759,1.759,0,0,0-.48-.889c-.755-.863-2.926-2.842-6.132-5.612-15.824-13.678-57.062-46.933-75.345-60.152a10.85,10.85,0,0,0-4.941-1.607,53.222,53.222,0,0,0-8.045-.1c-1.026.037-2.149-.011-2.341-.019a.222.222,0,0,0-.037-.025l-12.694-7.629c-.033-.02-.064-.037-.094-.053-1.04-.867-6.381-6-7.125-6.8a37.531,37.531,0,0,0-8-6.918,10.635,10.635,0,0,0-6.936-1.6,5.9,5.9,0,0,0-2.546,1.209,13.9,13.9,0,0,0-2.728,2.862c-2.957,4.169-2.776,8.708-1.371,12.756,2.037,5.873,6.673,10.672,7.507,11.56C177.745,258.882,183.678,265.942,185.105,267.646Zm11.421-22.293a1.37,1.37,0,0,1-.3-.187c-.964-.786-6.542-6.149-7.312-6.968a35.846,35.846,0,0,0-7.637-6.634,9.1,9.1,0,0,0-5.919-1.409,4.342,4.342,0,0,0-1.842.909,12.278,12.278,0,0,0-2.4,2.522c-2.628,3.706-2.419,7.746-1.171,11.343,1.942,5.6,6.376,10.157,7.172,11,1.825,1.94,8.063,9.367,9.289,10.833.126.15.2.239.214.254a.659.659,0,0,1-.1.967l.212-.153c-15.327,34.59-19.555,40.906-20.622,42.054-.432.465-.688.477-.769.49a.755.755,0,0,1-.314-.011c-3.778-.81-7.085-1.315-9.239-1.585-3.358-.423-5.905-.983-9.739-1.27-1.34-.1-2.925-.218-4.279-.279-2.493-.109-6.091-.111-8.609.034a4.565,4.565,0,0,0-3.338,1.968,10.4,10.4,0,0,0-1.8,4.077,9.706,9.706,0,0,0,1.337,6.632,21.687,21.687,0,0,0,7.676,7.824c2.2,1.259,11.864,3.631,14.636,4.029.353.052,2.419.3,2.75.335a.778.778,0,0,1,.8.37c5.43,9.115,8.6,13.53,10.433,15.654a9.132,9.132,0,0,0,1.814,1.694,2.2,2.2,0,0,0-.265.022.658.658,0,0,0-.193.1.847.847,0,0,0-.115.1l.064-.042s-.129.234-.2.4c.016.479.725.944.725.944l.469-1.4a.788.788,0,0,1,.189,1.058,1.66,1.66,0,0,1-.512.43c-1.66.992-10.784,5.4-11.764,5.888-1.88.939-5.473,3.049-7.322,5.692-1.1,1.571-1.55,3.343-.368,5.147,1.814,2.769,3.5,4.208,5.035,4.909,2.3,1.047,4.233.435,5.626.356a69.842,69.842,0,0,0,11.416-1.983c1-.221,5.258-1.192,6.376-1.563a34.915,34.915,0,0,1,11.622-1.48c5.933.462,10.268,5.586,13.431,10.162a33.709,33.709,0,0,1,2.532,4.118c.056.111.218.689.4,1.21.031.094.075.2.114.3l.011,0,.034.019.028.016a77.847,77.847,0,0,0,8.866-17.671c4.077-12.233,4.3-37.8,8.07-58.616,1.529-8.434,3.642-16.094,6.8-21.812,2.16-3.914,4.815-6.927,8.081-8.71a15.036,15.036,0,0,1,9.273-1.165,9.835,9.835,0,0,1,5.163,2.333c3.366,3.364,4.89,7.716,5.553,12.449a104.841,104.841,0,0,1,.476,14.255c0,26-5.687,47.828-6.133,74.572-.156,9.318,1.661,22.962,1.661,31.9a.78.78,0,0,1-1.56,0c0-8.944-1.817-22.6-1.661-31.924.448-26.733,6.133-48.552,6.133-74.546,0-4.634.175-9.513-.46-14.038-.615-4.389-1.99-8.443-5.111-11.563a8.268,8.268,0,0,0-4.333-1.9,13.393,13.393,0,0,0-8.253,1c-3.028,1.653-5.461,4.469-7.462,8.1-3.087,5.593-5.133,13.088-6.629,21.336-3.787,20.889-4.032,46.552-8.125,58.832a81.509,81.509,0,0,1-9.719,19.069c-7.34,11.107-16.344,21.38-22.288,33.267-6.311,12.623-8.233,26.389-8.233,40.45a94.562,94.562,0,0,0,.3,10.293l2.017,9.663a.772.772,0,0,1,.017.158.905.905,0,0,1-.607.959.769.769,0,0,1-.462-.017.958.958,0,0,1-.558-.646c-.268-.822-.97-4.715-1.209-5.668a31.832,31.832,0,0,1-.733-4.169l-.267-1.281a130.128,130.128,0,0,0-8.078,13.979,27.466,27.466,0,0,0-3.132,9.908c-2.212,16.442,3.212,26.6,4.525,28.775l4.946-.463.078,1.557.48-.165a.7.7,0,0,0,.278-.7.737.737,0,0,0-.148-.357,2.422,2.422,0,0,0-.284-.218s.694.119,1.452.187c8.679.794,47.915,1.853,63.854.212a28.35,28.35,0,0,0,5.269-.9,4.585,4.585,0,0,0,.841-.4c1.533-5.286,5.335-19.1,7.024-23.449,5.233-13.473,18.519-29.73,23.581-36.816,5.592-7.827,11.337-16.543,16.955-24.409,7.506-10.508,12.6-19.968,19.639-30.525a67.486,67.486,0,0,0,5.406-10.329c1.1-2.7.44-8.345.44-8.989,0-5.345-3.672-13.226-4.686-18.3a168.473,168.473,0,0,1-3.085-24.116c-.179-2.457-2.588-17.426-3.02-23.352-.354-.351-2.872-2.828-6.089-5.609-15.8-13.658-56.981-46.867-75.238-60.068a10.324,10.324,0,0,0-4.969-1.4,81.711,81.711,0,0,0-8.445.025,6.215,6.215,0,0,1-1.426-.106,1.244,1.244,0,0,1-.479-.234Zm7.228,139.114,0,0ZM153.884,332.5a.707.707,0,0,0-.086.605A.777.777,0,0,1,153.884,332.5Zm11.66-23.594.006,0h0Zm-.039-.019.028.013Zm-.161-.048a.555.555,0,0,1,.12.033.745.745,0,0,0-.1-.03ZM185.4,268a.778.778,0,0,0,.611.295l-.689-1.145a.733.733,0,0,0-.066.143l.041-.094a.786.786,0,0,0,.056.736l.008.009.012.019Zm11.235-24.1a.749.749,0,0,0-.359.226.706.706,0,0,0-.122.87.78.78,0,0,0,.306.318l.387.1-.034-.094C196.715,245.04,196.429,244.176,196.64,243.9Z" transform="translate(-126.307 -100.727)" fill="#3f51b5" fill-rule="evenodd"/>
    <path id="Tracé_203" data-name="Tracé 203" d="M206.168,335.316c.519.6,2.95,2.622,4.012,4.533.981,1.767,2.432,6.436,4.165,9.081.919,1.4,1.981,2.235,3.014,2.235a.78.78,0,0,0,0-1.56,1.556,1.556,0,0,1-1.033-.644,9.892,9.892,0,0,1-1.359-2.059c-1.407-2.667-2.586-6.3-3.424-7.81-1.117-2.012-3.645-4.16-4.193-4.793a.78.78,0,1,0-1.182,1.017Z" transform="translate(-81.706 -41.662)" fill="#3f51b5" fill-rule="evenodd"/>
    <path id="Tracé_204" data-name="Tracé 204" d="M223.956,339.659a1.442,1.442,0,0,1-.145-.05,9.188,9.188,0,0,1-1.273-.68,67.508,67.508,0,0,1-7.1-5.718.779.779,0,0,0-1.4-.278.826.826,0,0,0-.134.66,2.335,2.335,0,0,0,.588.931,46.015,46.015,0,0,0,7.23,5.734,7.459,7.459,0,0,0,2.081.976,1.279,1.279,0,0,0,.939-.131.976.976,0,0,0,.46-.693.78.78,0,0,0-1.245-.752Zm-8.618-5.866,0,0Z" transform="translate(-77.281 -42.46)" fill="#3f51b5" fill-rule="evenodd"/>
    <path id="Tracé_205" data-name="Tracé 205" d="M218.478,342.865l-.05-.075a53.984,53.984,0,0,1-3.421-6.593,5.992,5.992,0,0,1-.627-2.171.78.78,0,1,0-1.554-.148,7.493,7.493,0,0,0,.738,2.911,55.922,55.922,0,0,0,3.553,6.848,1.36,1.36,0,0,0,.471.48.721.721,0,0,0,.892-.17A.78.78,0,0,0,218.478,342.865Zm-.314-.2a.708.708,0,0,0-.811.2A.779.779,0,0,1,218.164,342.667Z" transform="translate(-77.877 -42.142)" fill="#3f51b5" fill-rule="evenodd"/>
    <path id="Tracé_206" data-name="Tracé 206" d="M142.136,317.044a.779.779,0,0,0-.41-.469.937.937,0,0,0-1.015.02.78.78,0,0,0-.111,1.173,21.9,21.9,0,0,0,3.006,2.266,10.653,10.653,0,0,0,6.25.323c2.307-.785,4.814-2.118,6.844-2.887a14.523,14.523,0,0,0,2.452-1.089,4.19,4.19,0,0,0,1.939-2.346,2.876,2.876,0,0,0-.39-2.519c-.576-.947-1.683-2.015-2.92-3.767a.78.78,0,1,0-1.274.9c1.023,1.449,1.961,2.425,2.575,3.255.437.59.708,1.057.518,1.67a2.671,2.671,0,0,1-1.263,1.477,13.013,13.013,0,0,1-2.188.959c-2.017.763-4.5,2.09-6.794,2.87a8.682,8.682,0,0,1-5.093-.264C144.011,318.5,142.738,317.515,142.136,317.044Z" transform="translate(-118.427 -56.557)" fill="#3f51b5" fill-rule="evenodd"/>
    <path id="Tracé_207" data-name="Tracé 207" d="M170.49,314.893c-.285.175-.513.317-.635.4a1.16,1.16,0,0,0-.151.117c-1.262.828-2.447,1.614-2.987,1.9a54.938,54.938,0,0,0-7.529,4.729,8.56,8.56,0,0,1-2.009,1.07c-.176.07-.721.323-.951.429a.775.775,0,0,0-.485.239.754.754,0,0,0-.229.605.736.736,0,0,0,.424.654.8.8,0,0,0,.6.056c.195-.053.961-.43,1.223-.535a10.124,10.124,0,0,0,2.383-1.285,53,53,0,0,1,7.311-4.586c.549-.295,1.777-1.117,3.063-1.968a.753.753,0,0,0,.186-.118l.017-.012c.532-.356,3.093-1.869,3.6-2.176a.906.906,0,0,0,.34-1.132.738.738,0,0,0-.953-.31A28.052,28.052,0,0,0,170.49,314.893Zm-13.4,9.42a.769.769,0,0,1-.214.541A.675.675,0,0,0,157.085,324.312Z" transform="translate(-109.959 -53.488)" fill="#3f51b5" fill-rule="evenodd"/>
    <path id="Tracé_208" data-name="Tracé 208" d="M151.049,280.975a14.743,14.743,0,0,1-1.667,2.19,3.567,3.567,0,0,1-1.521,1.05c-4.141.919-8.1-.407-12.16-1.763a15.368,15.368,0,0,1-4.015-2.638,4.758,4.758,0,0,1-.588-.64.79.79,0,0,1-.17-.3.78.78,0,0,0-1.544.223,3.734,3.734,0,0,0,1.235,1.855,17.285,17.285,0,0,0,4.587,2.979c4.335,1.449,8.571,2.787,12.993,1.808a4.8,4.8,0,0,0,2.067-1.257,12.9,12.9,0,0,0,2.025-2.522,2.462,2.462,0,0,0,.285-.633.8.8,0,0,0-.066-.543.78.78,0,0,0-1.462.192Zm.05.47a.257.257,0,0,0,.017.036Zm-.039-.111.011.036a.351.351,0,0,0,.012.037l.014.033A.6.6,0,0,1,151.06,281.333Z" transform="translate(-124.589 -72.911)" fill="#3f51b5" fill-rule="evenodd"/>
    <path id="Tracé_209" data-name="Tracé 209" d="M161.162,229.8a.8.8,0,0,0-.031-.307.779.779,0,0,0-.975-.515.8.8,0,0,0-.582.97,4.155,4.155,0,0,0,.565,1.238,16.933,16.933,0,0,0,2.262,2.95c.694.6,2.036,1.812,3.467,2.826a10.964,10.964,0,0,0,3.062,1.628,2.814,2.814,0,0,0,2.082-.092.779.779,0,0,0-.714-1.385,1.31,1.31,0,0,1-.941-.023,9.354,9.354,0,0,1-2.588-1.4,42.854,42.854,0,0,1-3.347-2.733,14.971,14.971,0,0,1-1.953-2.581C161.349,230.175,161.227,229.933,161.162,229.8Zm-.4.607a.8.8,0,0,1-.145.061A.751.751,0,0,0,160.761,230.405Zm.027-.016-.025.014.02-.011Z" transform="translate(-107.691 -100.489)" fill="#3f51b5" fill-rule="evenodd"/>
    <g id="Groupe_310" data-name="Groupe 310" transform="translate(39.218 20.058)">
      <ellipse id="Ellipse_29" data-name="Ellipse 29" cx="14.548" cy="13.094" rx="14.548" ry="13.094" transform="translate(34.64 221.476)" fill="#b8b5ff"/>
      <g id="Groupe_309" data-name="Groupe 309" transform="matrix(0.894, 0.448, -0.448, 0.894, 97.437, 0)">
        <rect id="Rectangle_256" data-name="Rectangle 256" width="122.012" height="217.521" fill="#b8b5ff"/>
      </g>
    </g>
    <g id="Groupe_311" data-name="Groupe 311" transform="matrix(0.896, 0.444, -0.444, 0.896, 140.806, 0)">
      <path id="Tracé_210" data-name="Tracé 210" d="M133.018,19.511a19.285,19.285,0,0,0-5.848-13.8A20.2,20.2,0,0,0,113.055,0H20.488A20.259,20.259,0,0,0,0,20.023C0,69.9,0,199.213,0,248.728A19.464,19.464,0,0,0,5.9,262.65a20.382,20.382,0,0,0,14.244,5.765h93.006A19.648,19.648,0,0,0,133.018,249ZM66.457,240.275A10.219,10.219,0,1,1,56,250.491,10.343,10.343,0,0,1,66.457,240.275ZM125.485,32.425H7.507V236H125.485Z" transform="translate(0 0)" fill="#3f51b5" fill-rule="evenodd"/>
      <path id="Tracé_211" data-name="Tracé 211" d="M0,166.911v81.818A19.464,19.464,0,0,0,5.9,262.65a20.382,20.382,0,0,0,14.244,5.765h93.006A19.648,19.648,0,0,0,133.018,249V166.885l-7.533,7.532V236H7.507V174.418Zm66.457,73.364A10.219,10.219,0,1,1,56,250.491,10.343,10.343,0,0,1,66.457,240.275ZM0,101.518l7.507-7.507V32.425H125.485V94.011l7.533,7.532V19.511a19.285,19.285,0,0,0-5.848-13.8A20.2,20.2,0,0,0,113.055,0H20.488A20.259,20.259,0,0,0,0,20.023Z" transform="translate(0 0)" fill="#3f51b5" fill-rule="evenodd"/>
    </g>
    <path id="Tracé_212" data-name="Tracé 212" d="M176.611,368.387a80.632,80.632,0,0,0,9.63-18.886c6.81-20.429,2.914-77.968,22.584-88.7,3.951-2.157,10.894-1.583,13.511,1.034,6.486,6.486,5.8,16.813,5.8,26.153,0,15.348-1.981,29.24-3.7,43.548A297.362,297.362,0,0,0,222,362.546c-.156,9.323,1.661,22.973,1.661,31.912" transform="translate(-98.147 -83.395)" fill="#b8b5ff" fill-rule="evenodd"/>
    <path id="Tracé_213" data-name="Tracé 213" d="M177.543,369.1a81.511,81.511,0,0,0,9.719-19.068c4.093-12.28,4.338-37.944,8.125-58.832,1.5-8.248,3.542-15.743,6.629-21.336,2-3.627,4.435-6.442,7.462-8.1a13.393,13.393,0,0,1,8.253-1,8.269,8.269,0,0,1,4.333,1.9c3.121,3.12,4.5,7.173,5.111,11.563.635,4.525.46,9.4.46,14.038,0,15.316-1.979,29.178-3.692,43.454a298.438,298.438,0,0,0-2.441,31.091c-.156,9.328,1.661,22.98,1.661,31.924a.78.78,0,0,0,1.56,0c0-8.936-1.817-22.58-1.661-31.9a296.739,296.739,0,0,1,2.43-30.932c1.72-14.338,3.7-28.259,3.7-43.64a104.843,104.843,0,0,0-.476-14.255c-.663-4.732-2.187-9.084-5.553-12.449A9.835,9.835,0,0,0,218,259.229a15.036,15.036,0,0,0-9.273,1.165c-3.266,1.783-5.921,4.8-8.081,8.71-3.155,5.718-5.269,13.378-6.8,21.812-3.773,20.811-3.993,46.382-8.07,58.616a79.931,79.931,0,0,1-9.541,18.7.78.78,0,1,0,1.3.859Z" transform="translate(-98.426 -83.675)" fill="#3f51b5" fill-rule="evenodd"/>
    <path id="Tracé_214" data-name="Tracé 214" d="M215.095,283.133a60.465,60.465,0,0,1-6.6.384,46.5,46.5,0,0,1-10.237-1.033c-1.812-.455-3.283-1.053-3.949-1.968a6.775,6.775,0,0,1-.758-2.677,49.268,49.268,0,0,1-.363-6.676c0-2.039.15-4.094.161-4.247a.78.78,0,0,0-1.418-.622,1.637,1.637,0,0,0-.151.593c-.067.644-.147,2.3-.151,4.272a44.356,44.356,0,0,0,.551,7.908,6.407,6.407,0,0,0,.869,2.368c.827,1.134,2.585,2,4.831,2.563a48.184,48.184,0,0,0,10.608,1.079,43.864,43.864,0,0,0,6.752-.368,1.782,1.782,0,0,0,.873-.367,4.447,4.447,0,0,0,.808-1.362,29.068,29.068,0,0,0,1.426-5.411,46.7,46.7,0,0,0,.838-9.7,8.39,8.39,0,0,0-.538-2.876.78.78,0,0,0-1.416.654,9.356,9.356,0,0,1,.423,3.436,49.423,49.423,0,0,1-.839,8.206,31.53,31.53,0,0,1-1.134,4.573A5.256,5.256,0,0,1,215.095,283.133Z" transform="translate(-89.741 -80.561)" fill="#3f51b5" fill-rule="evenodd"/>
  </g>
</svg>
