<svg xmlns="http://www.w3.org/2000/svg" xmlns:xlink="http://www.w3.org/1999/xlink" width="45.269" height="93.467" viewBox="0 0 45.269 93.467">
  <defs>
    <clipPath id="clip-path">
      <path id="Path_157" data-name="Path 157" d="M93.315-118.564h25.7v-25.653h-25.7Z" transform="translate(-93.315 144.217)" fill="none" clip-rule="evenodd"/>
    </clipPath>
    <clipPath id="clip-path-2">
      <rect id="Rectangle_203" data-name="Rectangle 203" width="93.609" height="94.66" fill="none"/>
    </clipPath>
  </defs>
  <g id="Group_220" data-name="Group 220" transform="translate(-83.333 179.281)">
    <path id="Path_124" data-name="Path 124" d="M84.711-88.067H127.3v-80.824H84.711Z" transform="translate(-0.036 -0.269)" fill="#b4bfff" fill-rule="evenodd"/>
    <path id="Path_125" data-name="Path 125" d="M128.6-172.487a6.794,6.794,0,0,0-1.99-4.8,6.8,6.8,0,0,0-4.8-1.99h-31.5a6.973,6.973,0,0,0-6.972,6.973V-92.67a6.855,6.855,0,0,0,2.008,4.847,6.855,6.855,0,0,0,4.847,2.008H121.84a6.762,6.762,0,0,0,6.762-6.762ZM105.95-95.614a3.56,3.56,0,0,1,3.559,3.558A3.56,3.56,0,0,1,105.95-88.5a3.56,3.56,0,0,1-3.558-3.558A3.56,3.56,0,0,1,105.95-95.614ZM85.888-97.1h40.15V-167.99H85.888Z" transform="translate(0)" fill="#3f50b4" fill-rule="evenodd"/>
    <path id="Path_126" data-name="Path 126" d="M121.044-144.8a1.773,1.773,0,0,0-1.773-1.773h-26.2A1.773,1.773,0,0,0,91.3-144.8v26.2a1.772,1.772,0,0,0,1.773,1.773h26.2a1.773,1.773,0,0,0,1.773-1.773Z" transform="translate(-0.206 -0.846)" fill="#fff" fill-rule="evenodd"/>
    <g id="Group_219" data-name="Group 219" transform="translate(93.057 -145.124)" clip-path="url(#clip-path)">
      <g id="Group_218" data-name="Group 218" transform="translate(-16.201 -34.597)">
        <g id="Group_217" data-name="Group 217">
          <g id="Group_216" data-name="Group 216" style="isolation: isolate">
            <g id="Group_215" data-name="Group 215">
              <g id="Group_214" data-name="Group 214" clip-path="url(#clip-path-2)">
                <path id="Path_127" data-name="Path 127" d="M8.236-68.448a3.717,3.717,0,0,1,3.7-3.737H80.765a3.716,3.716,0,0,1,3.7,3.737v38.774a3.716,3.716,0,0,1-3.7,3.737H11.932a3.717,3.717,0,0,1-3.7-3.737Z" transform="translate(-0.213 96.526)" fill="#b4bfff"/>
                <path id="Path_128" data-name="Path 128" d="M51.407-52.572a1.058,1.058,0,0,1,1.051-1.063H76.64a1.057,1.057,0,0,1,1.051,1.063,1.057,1.057,0,0,1-1.051,1.063H52.459A1.057,1.057,0,0,1,51.407-52.572Z" transform="translate(-1.329 96.047)" fill="#3f50b4" fill-rule="evenodd"/>
                <path id="Path_129" data-name="Path 129" d="M51.407-58.573a1.057,1.057,0,0,1,1.051-1.063H76.64a1.057,1.057,0,0,1,1.051,1.063,1.057,1.057,0,0,1-1.051,1.063H52.459A1.057,1.057,0,0,1,51.407-58.573Z" transform="translate(-1.329 96.202)" fill="#3f50b4" fill-rule="evenodd"/>
                <path id="Path_130" data-name="Path 130" d="M51.407-45.477a1.058,1.058,0,0,1,1.051-1.063H69.806a1.057,1.057,0,0,1,1.051,1.063,1.057,1.057,0,0,1-1.051,1.063H52.459A1.057,1.057,0,0,1,51.407-45.477Z" transform="translate(-1.329 95.863)" fill="#3f50b4" fill-rule="evenodd"/>
                <path id="Path_131" data-name="Path 131" d="M51.407-38.929a1.057,1.057,0,0,1,1.051-1.063H76.64a1.057,1.057,0,0,1,1.051,1.063,1.057,1.057,0,0,1-1.051,1.063H52.459A1.057,1.057,0,0,1,51.407-38.929Z" transform="translate(-1.329 95.694)" fill="#3f50b4" fill-rule="evenodd"/>
                <path id="Path_132" data-name="Path 132" d="M14.712-61.011A2.973,2.973,0,0,1,17.669-64H41.321a2.973,2.973,0,0,1,2.956,2.99v23.917a2.973,2.973,0,0,1-2.956,2.99H17.669a2.973,2.973,0,0,1-2.957-2.99Z" transform="translate(-0.38 96.315)" fill="#fff"/>
                <path id="Path_133" data-name="Path 133" d="M21.6-54.453h2.554v-2.583H21.6Zm-1.4-4.7a.7.7,0,0,0-.7.706v5.407a.7.7,0,0,0,.7.706h5.347a.7.7,0,0,0,.7-.706v-5.407a.7.7,0,0,0-.7-.706Z" transform="translate(-0.504 96.189)" fill="#3f50b4" fill-rule="evenodd"/>
                <path id="Path_134" data-name="Path 134" d="M21.6-40.454h2.554v-2.583H21.6Zm-1.4-4.7a.7.7,0,0,0-.7.706v5.407a.7.7,0,0,0,.7.706h5.347a.7.7,0,0,0,.7-.706v-5.407a.7.7,0,0,0-.7-.706Z" transform="translate(-0.504 95.827)" fill="#3f50b4" fill-rule="evenodd"/>
                <path id="Path_135" data-name="Path 135" d="M35.442-54.453H38v-2.583H35.442Zm-1.4-4.7a.7.7,0,0,0-.7.706v5.407a.7.7,0,0,0,.7.706h5.347a.7.7,0,0,0,.7-.706v-5.407a.7.7,0,0,0-.7-.706Z" transform="translate(-0.862 96.189)" fill="#3f50b4" fill-rule="evenodd"/>
                <path id="Path_136" data-name="Path 136" d="M28.733-58.448a.7.7,0,0,1,.7-.706h.851a.7.7,0,0,1,.7.706v3.134a.7.7,0,0,1-.7.706h-.851a.7.7,0,0,1-.7-.706Z" transform="translate(-0.743 96.189)" fill="#3f50b4"/>
                <path id="Path_137" data-name="Path 137" d="M30.282-58.448h-.851v-.706h.851a.7.7,0,0,1,.7.706v3.134a.7.7,0,0,1-.7.706h-.851a.7.7,0,0,1-.7-.706v-3.134a.7.7,0,0,1,.7-.706v3.84h.851Z" transform="translate(-0.743 96.189)" fill="#3f50b4" fill-rule="evenodd"/>
                <path id="Path_138" data-name="Path 138" d="M31.038-49.114a.7.7,0,0,1,.7-.706h.851a.7.7,0,0,1,.7.706v3.134a.7.7,0,0,1-.7.706h-.851a.7.7,0,0,1-.7-.706Z" transform="translate(-0.803 95.948)" fill="#3f50b4"/>
                <path id="Path_139" data-name="Path 139" d="M32.588-49.114h-.851v-.706h.851a.7.7,0,0,1,.7.706v3.134a.7.7,0,0,1-.7.706h-.851a.7.7,0,0,1-.7-.706v-3.134a.7.7,0,0,1,.7-.706v3.84h.851Z" transform="translate(-0.803 95.948)" fill="#3f50b4" fill-rule="evenodd"/>
                <path id="Path_140" data-name="Path 140" d="M28.733-51.448a.7.7,0,0,1,.7-.706h.851a.7.7,0,0,1,.7.706v.861a.7.7,0,0,1-.7.706h-.851a.7.7,0,0,1-.7-.706Z" transform="translate(-0.743 96.008)" fill="#3f50b4"/>
                <path id="Path_141" data-name="Path 141" d="M29.431-51.448v-.706h.851a.7.7,0,0,1,.7.706Zm1.55,0h-.7v.861h-.851v-1.567a.7.7,0,0,0-.7.706v.861a.7.7,0,0,0,.7.706h.851a.7.7,0,0,0,.7-.706Z" transform="translate(-0.743 96.008)" fill="#3f50b4" fill-rule="evenodd"/>
                <path id="Path_142" data-name="Path 142" d="M33.348-44.449a.7.7,0,0,1,.7-.706H34.9a.7.7,0,0,1,.7.706v.861a.7.7,0,0,1-.7.706h-.851a.7.7,0,0,1-.7-.706Z" transform="translate(-0.862 95.827)" fill="#3f50b4"/>
                <path id="Path_143" data-name="Path 143" d="M34.046-44.449v-.706H34.9a.7.7,0,0,1,.7.706Zm1.55,0h-.7v.861h-.851v-1.567a.7.7,0,0,0-.7.706v.861a.7.7,0,0,0,.7.706H34.9a.7.7,0,0,0,.7-.706Z" transform="translate(-0.862 95.827)" fill="#3f50b4" fill-rule="evenodd"/>
                <path id="Path_144" data-name="Path 144" d="M28.733-43.671a.7.7,0,0,1,.7-.706h.851a.7.7,0,0,1,.7.706v4.649a.7.7,0,0,1-.7.706h-.851a.7.7,0,0,1-.7-.706Z" transform="translate(-0.743 95.807)" fill="#3f50b4"/>
                <path id="Path_145" data-name="Path 145" d="M19.5-49.114a.7.7,0,0,1,.7-.706h.851a.7.7,0,0,1,.7.706v.861a.7.7,0,0,1-.7.706H20.2a.7.7,0,0,1-.7-.706Z" transform="translate(-0.504 95.948)" fill="#3f50b4"/>
                <path id="Path_146" data-name="Path 146" d="M20.2-49.114v-.706h.851a.7.7,0,0,1,.7.706Zm1.549,0h-.7v.861H20.2V-49.82a.7.7,0,0,0-.7.706v.861a.7.7,0,0,0,.7.706h.851a.7.7,0,0,0,.7-.706Z" transform="translate(-0.504 95.948)" fill="#3f50b4" fill-rule="evenodd"/>
                <path id="Path_147" data-name="Path 147" d="M24.117-49.114a.7.7,0,0,1,.7-.706h3.1a.7.7,0,0,1,.7.706v.861a.7.7,0,0,1-.7.706h-3.1a.7.7,0,0,1-.7-.706Z" transform="translate(-0.624 95.948)" fill="#3f50b4"/>
                <path id="Path_148" data-name="Path 148" d="M24.815-48.253h3.1v-.861h-3.1Zm0-1.567a.7.7,0,0,0-.7.706v.861a.7.7,0,0,0,.7.706h3.1a.7.7,0,0,0,.7-.706v-.861a.7.7,0,0,0-.7-.706Z" transform="translate(-0.624 95.948)" fill="#3f50b4" fill-rule="evenodd"/>
                <path id="Path_149" data-name="Path 149" d="M35.654-39.78a.7.7,0,0,1,.7-.706h3.1a.7.7,0,0,1,.7.706v.861a.7.7,0,0,1-.7.706h-3.1a.7.7,0,0,1-.7-.706Z" transform="translate(-0.922 95.707)" fill="#3f50b4"/>
                <path id="Path_150" data-name="Path 150" d="M36.352-38.919h3.1v-.861h-3.1Zm0-1.567a.7.7,0,0,0-.7.706v.861a.7.7,0,0,0,.7.706h3.1a.7.7,0,0,0,.7-.706v-.861a.7.7,0,0,0-.7-.706Z" transform="translate(-0.922 95.707)" fill="#3f50b4" fill-rule="evenodd"/>
                <path id="Path_151" data-name="Path 151" d="M38.659-45.276a.7.7,0,0,1-.7-.706v-3.134a.7.7,0,0,1,.7-.706h.851a.7.7,0,0,1,.7.706v3.134a.7.7,0,0,1-.7.706Z" transform="translate(-0.982 95.948)" fill="#3f50b4"/>
                <path id="Path_152" data-name="Path 152" d="M38.659-45.981h.851v-3.134h-.851Zm-.7,0a.7.7,0,0,0,.7.706h.851a.7.7,0,0,0,.7-.706v-3.134a.7.7,0,0,0-.7-.706h-.851a.7.7,0,0,0-.7.706Z" transform="translate(-0.982 95.948)" fill="#3f50b4" fill-rule="evenodd"/>
                <path id="Path_153" data-name="Path 153" d="M39.511-42.82a.7.7,0,0,1,.7.706v3.134a.7.7,0,0,1-.7.706h-.851a.7.7,0,0,1-.7-.706v-3.134a.7.7,0,0,1,.7-.706Z" transform="translate(-0.982 95.767)" fill="#3f50b4"/>
                <path id="Path_154" data-name="Path 154" d="M38.659-38.981h.851v-3.134h-.851Zm1.549-3.134a.7.7,0,0,0-.7-.706h-.851a.7.7,0,0,0-.7.706v3.134a.7.7,0,0,0,.7.706h.851a.7.7,0,0,0,.7-.706Z" transform="translate(-0.982 95.767)" fill="#3f50b4" fill-rule="evenodd"/>
                <path id="Path_155" data-name="Path 155" d="M35.654-49.114a.7.7,0,0,1,.7-.706h3.1a.7.7,0,0,1,.7.706v.861a.7.7,0,0,1-.7.706h-3.1a.7.7,0,0,1-.7-.706Z" transform="translate(-0.922 95.948)" fill="#3f50b4"/>
                <path id="Path_156" data-name="Path 156" d="M36.352-48.253h3.1v-.861h-3.1Zm0-1.567a.7.7,0,0,0-.7.706v.861a.7.7,0,0,0,.7.706h3.1a.7.7,0,0,0,.7-.706v-.861a.7.7,0,0,0-.7-.706Z" transform="translate(-0.922 95.948)" fill="#3f50b4" fill-rule="evenodd"/>
              </g>
            </g>
          </g>
        </g>
      </g>
    </g>
    <path id="Path_158" data-name="Path 158" d="M88.341-140.242a.975.975,0,0,0,.746.98.975.975,0,0,0,1.175-.719,3.419,3.419,0,0,0,.029-.471c.011-1.42.048-8.481.054-8.517a.975.975,0,0,0-.81-1.114.975.975,0,0,0-1.114.81c-.006.037-.066,7.337-.077,8.805Z" transform="translate(-0.129 -0.755)" fill="#3f50b4" fill-rule="evenodd"/>
    <path id="Path_159" data-name="Path 159" d="M98.264-148.079a.975.975,0,0,0,.98-.746A.975.975,0,0,0,98.525-150a3.477,3.477,0,0,0-.471-.029c-1.42-.012-8.481-.049-8.517-.055a.975.975,0,0,0-1.114.81.975.975,0,0,0,.81,1.114c.037.006,7.337.066,8.805.078Z" transform="translate(-0.131 -0.755)" fill="#3f50b4" fill-rule="evenodd"/>
    <path id="Path_160" data-name="Path 160" d="M114.721-150.024a.975.975,0,0,0-.98.746.975.975,0,0,0,.719,1.175,3.681,3.681,0,0,0,.471.029c1.42.012,8.481.048,8.517.054a.975.975,0,0,0,1.114-.81.976.976,0,0,0-.81-1.114c-.037-.006-7.337-.065-8.805-.077Z" transform="translate(-0.786 -0.757)" fill="#3f50b4" fill-rule="evenodd"/>
    <path id="Path_161" data-name="Path 161" d="M122.793-140.1a.976.976,0,0,0,.746.98.975.975,0,0,0,1.175-.72,3.468,3.468,0,0,0,.029-.471c.012-1.419.049-8.48.055-8.517a.976.976,0,0,0-.81-1.114.976.976,0,0,0-1.114.81c-.006.037-.066,7.337-.078,8.805Z" transform="translate(-1.02 -0.758)" fill="#3f50b4" fill-rule="evenodd"/>
    <path id="Path_162" data-name="Path 162" d="M124.738-123.031a.975.975,0,0,0-.746-.98.975.975,0,0,0-1.175.72,3.683,3.683,0,0,0-.029.471c-.012,1.42-.048,8.481-.054,8.517a.976.976,0,0,0,.81,1.114.976.976,0,0,0,1.114-.81c.006-.037.065-7.337.077-8.805Z" transform="translate(-1.019 -1.429)" fill="#3f50b4" fill-rule="evenodd"/>
    <path id="Path_163" data-name="Path 163" d="M114.58-114.958a.976.976,0,0,0-.98.745.976.976,0,0,0,.72,1.176,3.683,3.683,0,0,0,.471.029c1.419.012,8.481.049,8.517.055a.976.976,0,0,0,1.114-.81.975.975,0,0,0-.81-1.114c-.037-.006-7.337-.066-8.805-.078Z" transform="translate(-0.782 -1.663)" fill="#3f50b4" fill-rule="evenodd"/>
    <path id="Path_164" data-name="Path 164" d="M98.367-113.012a.975.975,0,0,0,.98-.746.975.975,0,0,0-.719-1.175,3.281,3.281,0,0,0-.471-.029c-1.42-.012-8.481-.048-8.517-.054a.974.974,0,0,0-1.114.81.974.974,0,0,0,.81,1.114c.037.006,7.337.066,8.805.078Z" transform="translate(-0.134 -1.662)" fill="#3f50b4" fill-rule="evenodd"/>
    <path id="Path_165" data-name="Path 165" d="M90.53-123.171a.975.975,0,0,0-.746-.98.975.975,0,0,0-1.175.719,3.483,3.483,0,0,0-.029.471c-.012,1.42-.049,8.481-.054,8.517a.975.975,0,0,0,.81,1.114.975.975,0,0,0,1.114-.81c.006-.038.066-7.337.078-8.805Z" transform="translate(-0.134 -1.425)" fill="#3f50b4" fill-rule="evenodd"/>
  </g>
</svg>
