<svg xmlns="http://www.w3.org/2000/svg" xmlns:xlink="http://www.w3.org/1999/xlink" width="412.243" height="337.314" viewBox="0 0 412.243 337.314">
  <defs>
    <clipPath id="clip-path">
      <rect id="Rectangle_19" data-name="Rectangle 19" width="362.484" height="262.501" transform="translate(0)" fill="#fff" stroke="#707070" stroke-width="1"/>
    </clipPath>
  </defs>
  <g id="Group_235" data-name="Group 235" transform="translate(-3742.389 1124.116) rotate(-13)">
    <g id="Mask_Group_8" data-name="Mask Group 8" transform="translate(3881 -174)" clip-path="url(#clip-path)">
      <g id="qr_sticker" transform="translate(0 22.505)">
        <path id="Rectangle_1537" data-name="Rectangle 1537" d="M48.269,162.387a17.575,17.575,0,0,1,17.575-17.575H393.179a17.574,17.574,0,0,1,17.574,17.575V344.728A17.574,17.574,0,0,1,393.179,362.3H65.843a17.575,17.575,0,0,1-17.575-17.575Z" transform="translate(-48.269 -144.812)" fill="#ffa8a0"/>
        <g id="Group_7514" data-name="Group 7514" transform="translate(199.99 57.488)">
          <path id="Line_41_Stroke_" data-name="Line 41 (Stroke)" d="M301.266,257.315a5,5,0,0,1,5-5h115a5,5,0,0,1,0,10h-115A5,5,0,0,1,301.266,257.315Z" transform="translate(-301.266 -224.824)" fill="#ffe2df" fill-rule="evenodd"/>
          <path id="Line_57_Stroke_" data-name="Line 57 (Stroke)" d="M301.266,222.537a5,5,0,0,1,5-5h115a5,5,0,0,1,0,10h-115A5,5,0,0,1,301.266,222.537Z" transform="translate(-301.266 -217.538)" fill="#ffe2df" fill-rule="evenodd"/>
          <path id="Line_42_Stroke_" data-name="Line 42 (Stroke)" d="M301.266,298.429a5,5,0,0,1,5-5h82.5a5,5,0,1,1,0,10h-82.5A5,5,0,0,1,301.266,298.429Z" transform="translate(-301.266 -233.438)" fill="#ffe2df" fill-rule="evenodd"/>
          <path id="Line_43_Stroke_" data-name="Line 43 (Stroke)" d="M301.266,336.377a5,5,0,0,1,5-5h115a5,5,0,0,1,0,10h-115A5,5,0,0,1,301.266,336.377Z" transform="translate(-301.266 -241.389)" fill="#ffe2df" fill-rule="evenodd"/>
        </g>
        <g id="Group_7045" data-name="Group 7045" transform="translate(29.998 37.491)">
          <path id="Rectangle_1507" data-name="Rectangle 1507" d="M86.218,206.3a14.059,14.059,0,0,1,14.06-14.059H212.754A14.059,14.059,0,0,1,226.813,206.3V318.776a14.06,14.06,0,0,1-14.059,14.06H100.278a14.06,14.06,0,0,1-14.06-14.06Z" transform="translate(-86.218 -192.24)" fill="#fff"/>
          <g id="Group_7044" data-name="Group 7044" transform="translate(22.193 22.205)">
            <path id="Rectangle_1523_Stroke_" data-name="Rectangle 1523 (Stroke)" d="M124.252,230.29v12.147H136.4V230.29Zm-6.639-9.959a3.319,3.319,0,0,0-3.32,3.32v25.426a3.319,3.319,0,0,0,3.32,3.319h25.426a3.319,3.319,0,0,0,3.319-3.319V223.651a3.319,3.319,0,0,0-3.319-3.32Z" transform="translate(-114.293 -220.331)" fill="#3f51b5" fill-rule="evenodd"/>
            <path id="Rectangle_1524_Stroke_" data-name="Rectangle 1524 (Stroke)" d="M124.252,311.418v12.148H136.4V311.418Zm-6.639-9.959a3.32,3.32,0,0,0-3.32,3.32v25.426a3.319,3.319,0,0,0,3.32,3.319h25.426a3.319,3.319,0,0,0,3.319-3.319V304.779a3.32,3.32,0,0,0-3.319-3.32Z" transform="translate(-114.293 -237.329)" fill="#3f51b5" fill-rule="evenodd"/>
            <path id="Rectangle_1525_Stroke_" data-name="Rectangle 1525 (Stroke)" d="M205.388,230.29v12.147h12.148V230.29Zm-6.639-9.959a3.319,3.319,0,0,0-3.319,3.32v25.426a3.319,3.319,0,0,0,3.319,3.319h25.426a3.32,3.32,0,0,0,3.32-3.319V223.651a3.32,3.32,0,0,0-3.32-3.32Z" transform="translate(-131.292 -220.331)" fill="#3f51b5" fill-rule="evenodd"/>
            <path id="Rectangle_1526" data-name="Rectangle 1526" d="M168.385,223.651a3.32,3.32,0,0,1,3.32-3.32h4.049a3.32,3.32,0,0,1,3.32,3.32v14.737a3.32,3.32,0,0,1-3.32,3.32h-4.049a3.32,3.32,0,0,1-3.32-3.32Z" transform="translate(-125.626 -220.331)" fill="#3f51b5"/>
            <path id="Rectangle_1526_Stroke_" data-name="Rectangle 1526 (Stroke)" d="M175.754,223.651h-4.049v-3.32h4.049a3.32,3.32,0,0,1,3.32,3.32v14.737a3.32,3.32,0,0,1-3.32,3.32h-4.049a3.32,3.32,0,0,1-3.32-3.32V223.651a3.32,3.32,0,0,1,3.32-3.32v18.057h4.049Z" transform="translate(-125.626 -220.331)" fill="#3f51b5" fill-rule="evenodd"/>
            <path id="Rectangle_1531" data-name="Rectangle 1531" d="M181.9,277.743a3.32,3.32,0,0,1,3.32-3.32h4.049a3.32,3.32,0,0,1,3.319,3.32v14.738a3.319,3.319,0,0,1-3.319,3.319h-4.049a3.319,3.319,0,0,1-3.32-3.319Z" transform="translate(-128.457 -231.664)" fill="#3f51b5"/>
            <path id="Rectangle_1531_Stroke_" data-name="Rectangle 1531 (Stroke)" d="M189.264,277.743h-4.049v-3.32h4.049a3.32,3.32,0,0,1,3.319,3.32v14.738a3.319,3.319,0,0,1-3.319,3.319h-4.049a3.319,3.319,0,0,1-3.32-3.319V277.743a3.32,3.32,0,0,1,3.32-3.32v18.058h4.049Z" transform="translate(-128.457 -231.664)" fill="#3f51b5" fill-rule="evenodd"/>
            <path id="Rectangle_1529" data-name="Rectangle 1529" d="M168.385,264.214a3.32,3.32,0,0,1,3.32-3.319h4.049a3.32,3.32,0,0,1,3.32,3.319v4.049a3.32,3.32,0,0,1-3.32,3.32h-4.049a3.32,3.32,0,0,1-3.32-3.32Z" transform="translate(-125.626 -228.83)" fill="#3f51b5"/>
            <path id="Rectangle_1529_Stroke_" data-name="Rectangle 1529 (Stroke)" d="M171.705,264.214V260.9h4.049a3.32,3.32,0,0,1,3.32,3.319Zm7.369,0h-3.32v4.049h-4.049V260.9a3.32,3.32,0,0,0-3.32,3.319v4.049a3.32,3.32,0,0,0,3.32,3.32h4.049a3.32,3.32,0,0,0,3.32-3.32Z" transform="translate(-125.626 -228.83)" fill="#3f51b5" fill-rule="evenodd"/>
            <path id="Rectangle_1535" data-name="Rectangle 1535" d="M195.43,304.779a3.32,3.32,0,0,1,3.319-3.32H202.8a3.32,3.32,0,0,1,3.32,3.32v4.049a3.32,3.32,0,0,1-3.32,3.32h-4.049a3.32,3.32,0,0,1-3.319-3.32Z" transform="translate(-131.292 -237.329)" fill="#3f51b5"/>
            <path id="Rectangle_1535_Stroke_" data-name="Rectangle 1535 (Stroke)" d="M198.749,304.779v-3.32H202.8a3.32,3.32,0,0,1,3.32,3.32Zm7.369,0H202.8v4.049h-4.049v-7.369a3.32,3.32,0,0,0-3.319,3.32v4.049a3.32,3.32,0,0,0,3.319,3.32H202.8a3.32,3.32,0,0,0,3.32-3.32Z" transform="translate(-131.292 -237.329)" fill="#3f51b5" fill-rule="evenodd"/>
            <path id="Rectangle_1536" data-name="Rectangle 1536" d="M168.385,309.288a3.32,3.32,0,0,1,3.32-3.32h4.049a3.32,3.32,0,0,1,3.32,3.32v21.863a3.32,3.32,0,0,1-3.32,3.32h-4.049a3.32,3.32,0,0,1-3.32-3.32Z" transform="translate(-125.626 -238.274)" fill="#3f51b5"/>
            <path id="Rectangle_1527" data-name="Rectangle 1527" d="M114.293,277.743a3.32,3.32,0,0,1,3.32-3.32h4.049a3.32,3.32,0,0,1,3.319,3.32v4.049a3.32,3.32,0,0,1-3.319,3.32h-4.049a3.32,3.32,0,0,1-3.32-3.32Z" transform="translate(-114.293 -231.664)" fill="#3f51b5"/>
            <path id="Rectangle_1527_Stroke_" data-name="Rectangle 1527 (Stroke)" d="M117.613,277.743v-3.32h4.049a3.32,3.32,0,0,1,3.319,3.32Zm7.368,0h-3.319v4.049h-4.049v-7.369a3.32,3.32,0,0,0-3.32,3.32v4.049a3.32,3.32,0,0,0,3.32,3.32h4.049a3.32,3.32,0,0,0,3.319-3.32Z" transform="translate(-114.293 -231.664)" fill="#3f51b5" fill-rule="evenodd"/>
            <path id="Rectangle_1528" data-name="Rectangle 1528" d="M141.336,277.743a3.32,3.32,0,0,1,3.32-3.32h14.737a3.32,3.32,0,0,1,3.32,3.32v4.049a3.32,3.32,0,0,1-3.32,3.32H144.656a3.32,3.32,0,0,1-3.32-3.32Z" transform="translate(-119.959 -231.664)" fill="#3f51b5"/>
            <path id="Rectangle_1528_Stroke_" data-name="Rectangle 1528 (Stroke)" d="M159.393,277.743H144.656v4.049h14.737Zm-14.737-3.32a3.32,3.32,0,0,0-3.32,3.32v4.049a3.32,3.32,0,0,0,3.32,3.32h14.737a3.32,3.32,0,0,0,3.32-3.32v-4.049a3.32,3.32,0,0,0-3.32-3.32Z" transform="translate(-119.959 -231.664)" fill="#3f51b5" fill-rule="evenodd"/>
            <path id="Rectangle_1530" data-name="Rectangle 1530" d="M208.944,331.836a3.319,3.319,0,0,1,3.32-3.319H227a3.319,3.319,0,0,1,3.32,3.319v4.049a3.319,3.319,0,0,1-3.32,3.32H212.264a3.319,3.319,0,0,1-3.32-3.32Z" transform="translate(-134.124 -242.998)" fill="#3f51b5"/>
            <path id="Rectangle_1530_Stroke_" data-name="Rectangle 1530 (Stroke)" d="M227,331.836H212.264v4.049H227Zm-14.737-3.319a3.319,3.319,0,0,0-3.32,3.319v4.049a3.319,3.319,0,0,0,3.32,3.32H227a3.319,3.319,0,0,0,3.32-3.32v-4.049a3.319,3.319,0,0,0-3.32-3.319Z" transform="translate(-134.124 -242.998)" fill="#3f51b5" fill-rule="evenodd"/>
            <path id="Rectangle_1533" data-name="Rectangle 1533" d="M225.782,295.793a3.319,3.319,0,0,1-3.32-3.319V277.735a3.32,3.32,0,0,1,3.32-3.32h4.049a3.32,3.32,0,0,1,3.319,3.32v14.738a3.319,3.319,0,0,1-3.319,3.319Z" transform="translate(-136.956 -231.663)" fill="#3f51b5"/>
            <path id="Rectangle_1533_Stroke_" data-name="Rectangle 1533 (Stroke)" d="M225.782,277.735v14.738h4.049V277.735Zm-3.32,14.738a3.319,3.319,0,0,0,3.32,3.319h4.049a3.319,3.319,0,0,0,3.319-3.319V277.735a3.32,3.32,0,0,0-3.319-3.32h-4.049a3.32,3.32,0,0,0-3.32,3.32Z" transform="translate(-136.956 -231.663)" fill="#3f51b5" fill-rule="evenodd"/>
            <path id="Rectangle_1532" data-name="Rectangle 1532" d="M229.835,314.988a3.319,3.319,0,0,1,3.319,3.32v14.737a3.32,3.32,0,0,1-3.319,3.32h-4.049a3.32,3.32,0,0,1-3.32-3.32V318.308a3.319,3.319,0,0,1,3.32-3.32Z" transform="translate(-136.957 -240.163)" fill="#3f51b5"/>
            <path id="Rectangle_1532_Stroke_" data-name="Rectangle 1532 (Stroke)" d="M229.835,333.045V318.308h-4.049v14.737Zm3.319-14.737a3.319,3.319,0,0,0-3.319-3.32h-4.049a3.319,3.319,0,0,0-3.32,3.32v14.737a3.32,3.32,0,0,0,3.32,3.32h4.049a3.32,3.32,0,0,0,3.319-3.32Z" transform="translate(-136.957 -240.163)" fill="#3f51b5" fill-rule="evenodd"/>
            <path id="Rectangle_1534" data-name="Rectangle 1534" d="M208.944,277.743a3.32,3.32,0,0,1,3.32-3.32H227a3.32,3.32,0,0,1,3.32,3.32v4.049a3.32,3.32,0,0,1-3.32,3.32H212.264a3.32,3.32,0,0,1-3.32-3.32Z" transform="translate(-134.124 -231.664)" fill="#3f51b5"/>
            <path id="Rectangle_1534_Stroke_" data-name="Rectangle 1534 (Stroke)" d="M227,277.743H212.264v4.049H227Zm-14.737-3.32a3.32,3.32,0,0,0-3.32,3.32v4.049a3.32,3.32,0,0,0,3.32,3.32H227a3.32,3.32,0,0,0,3.32-3.32v-4.049a3.32,3.32,0,0,0-3.32-3.32Z" transform="translate(-134.124 -231.664)" fill="#3f51b5" fill-rule="evenodd"/>
          </g>
        </g>
      </g>
    </g>
  </g>
</svg>
