<svg xmlns="http://www.w3.org/2000/svg" xmlns:xlink="http://www.w3.org/1999/xlink" width="458.562" height="332.077" viewBox="0 0 458.562 332.077">
  <defs>
    <clipPath id="clip-path">
      <rect id="Rectangle_19" data-name="Rectangle 19" width="458.562" height="332.077" transform="translate(3916 -174)" fill="#fff" stroke="#707070" stroke-width="1"/>
    </clipPath>
  </defs>
  <g id="Group_12" data-name="Group 12" transform="translate(-3916 174)">
    <g id="Mask_Group_9" data-name="Mask Group 9" clip-path="url(#clip-path)">
      <g id="instant" transform="translate(3910.06 -247.795)">
        <path id="Icon-color" d="M332.077,175.724v15.681a7.813,7.813,0,0,1-7.784,7.841h-7.783v36.695A62.961,62.961,0,0,1,298.3,280.319l-30.354,31.363A46.539,46.539,0,0,1,238.681,324.7v54.885a7.813,7.813,0,0,1-7.784,7.841H184.2a7.813,7.813,0,0,1-7.784-7.841V324.7a46.551,46.551,0,0,1-29.264-13.486L116.8,279.849a62.959,62.959,0,0,1-18.213-43.908V199.246H90.8a7.812,7.812,0,0,1-7.783-7.841V175.724a7.812,7.812,0,0,1,7.783-7.841h38.915V81.636a7.812,7.812,0,0,1,7.783-7.841h15.567a7.812,7.812,0,0,1,7.783,7.841v86.248h93.4V81.636a7.812,7.812,0,0,1,7.783-7.841H277.6a7.812,7.812,0,0,1,7.783,7.841v86.248h38.915A7.813,7.813,0,0,1,332.077,175.724Z" fill="#b5c0ff"/>
        <g id="Icon-color_2">
          <path id="Path_166" data-name="Path 166" d="M386.506,270.044,302.772,401.721a9.17,9.17,0,0,1-7.655,4.151h-2.393a6.209,6.209,0,0,1-4.426-1.845,5.526,5.526,0,0,1-1.555-4.382l6.7-74.486h-42.7a9.159,9.159,0,0,1-7.775-4.382l-2.273-3.805a5.479,5.479,0,0,1,0-5.881l83.734-131.677a9.174,9.174,0,0,1,7.894-4.151h2.393a6.207,6.207,0,0,1,4.426,1.845,5.526,5.526,0,0,1,1.555,4.382l-6.819,74.486h42.7a9.154,9.154,0,0,1,7.775,4.382l2.273,3.805A5.476,5.476,0,0,1,386.506,270.044Z" fill="#3f51b5"/>
        </g>
      </g>
    </g>
  </g>
</svg>
