<svg xmlns="http://www.w3.org/2000/svg" xmlns:xlink="http://www.w3.org/1999/xlink" width="163.466" height="118.377" viewBox="0 0 163.466 118.377">
  <defs>
    <clipPath id="clip-path">
      <rect id="Rectangle_19" data-name="Rectangle 19" width="163.466" height="118.377" transform="translate(3916 -174)" fill="#fff" stroke="#707070" stroke-width="1"/>
    </clipPath>
  </defs>
  <g id="Group_235" data-name="Group 235" transform="translate(-3881 174)">
    <g id="Mask_Group_8" data-name="Mask Group 8" transform="translate(-35)" clip-path="url(#clip-path)">
      <g id="qr_sticker" transform="translate(3916 -163.851)">
        <path id="Rectangle_1537" data-name="Rectangle 1537" d="M48.269,152.737a7.925,7.925,0,0,1,7.925-7.926H203.809a7.925,7.925,0,0,1,7.925,7.926v82.229a7.925,7.925,0,0,1-7.925,7.926H56.194a7.925,7.925,0,0,1-7.925-7.926Z" transform="translate(-48.269 -144.812)" fill="#b5c0ff"/>
        <g id="Group_7514" data-name="Group 7514" transform="translate(90.187 25.925)">
          <path id="Line_41_Stroke_" data-name="Line 41 (Stroke)" d="M301.266,254.57a2.255,2.255,0,0,1,2.255-2.255h51.858a2.255,2.255,0,0,1,0,4.51H303.521A2.255,2.255,0,0,1,301.266,254.57Z" transform="translate(-301.266 -239.918)" fill="#3f51b5" fill-rule="evenodd"/>
          <path id="Line_57_Stroke_" data-name="Line 57 (Stroke)" d="M301.266,219.792a2.255,2.255,0,0,1,2.255-2.254h51.858a2.255,2.255,0,0,1,0,4.509H303.521A2.255,2.255,0,0,1,301.266,219.792Z" transform="translate(-301.266 -217.538)" fill="#3f51b5" fill-rule="evenodd"/>
          <path id="Line_42_Stroke_" data-name="Line 42 (Stroke)" d="M301.266,295.684a2.255,2.255,0,0,1,2.255-2.255h37.2a2.255,2.255,0,0,1,0,4.51h-37.2A2.255,2.255,0,0,1,301.266,295.684Z" transform="translate(-301.266 -266.376)" fill="#3f51b5" fill-rule="evenodd"/>
          <path id="Line_43_Stroke_" data-name="Line 43 (Stroke)" d="M301.266,333.631a2.255,2.255,0,0,1,2.255-2.255h51.858a2.255,2.255,0,0,1,0,4.509H303.521A2.255,2.255,0,0,1,301.266,333.631Z" transform="translate(-301.266 -290.796)" fill="#3f51b5" fill-rule="evenodd"/>
        </g>
        <g id="Group_7045" data-name="Group 7045" transform="translate(13.528 16.907)">
          <path id="Rectangle_1507" data-name="Rectangle 1507" d="M86.218,198.58a6.34,6.34,0,0,1,6.34-6.34h50.722a6.34,6.34,0,0,1,6.34,6.34V249.3a6.34,6.34,0,0,1-6.34,6.34H92.558a6.341,6.341,0,0,1-6.34-6.34Z" transform="translate(-86.218 -192.24)" fill="#fff"/>
          <g id="Group_7044" data-name="Group 7044" transform="translate(10.008 10.014)">
            <path id="Rectangle_1523_Stroke_" data-name="Rectangle 1523 (Stroke)" d="M118.784,224.822V230.3h5.478v-5.478Zm-2.994-4.491a1.5,1.5,0,0,0-1.5,1.5v11.466a1.5,1.5,0,0,0,1.5,1.5h11.466a1.5,1.5,0,0,0,1.5-1.5V221.828a1.5,1.5,0,0,0-1.5-1.5Z" transform="translate(-114.293 -220.331)" fill="#3f51b5" fill-rule="evenodd"/>
            <path id="Rectangle_1524_Stroke_" data-name="Rectangle 1524 (Stroke)" d="M118.784,305.95v5.478h5.478V305.95Zm-2.994-4.491a1.5,1.5,0,0,0-1.5,1.5v11.466a1.5,1.5,0,0,0,1.5,1.5h11.466a1.5,1.5,0,0,0,1.5-1.5V302.956a1.5,1.5,0,0,0-1.5-1.5Z" transform="translate(-114.293 -272.539)" fill="#3f51b5" fill-rule="evenodd"/>
            <path id="Rectangle_1525_Stroke_" data-name="Rectangle 1525 (Stroke)" d="M199.92,224.822V230.3H205.4v-5.478Zm-2.994-4.491a1.5,1.5,0,0,0-1.5,1.5v11.466a1.5,1.5,0,0,0,1.5,1.5h11.466a1.5,1.5,0,0,0,1.5-1.5V221.828a1.5,1.5,0,0,0-1.5-1.5Z" transform="translate(-166.506 -220.331)" fill="#3f51b5" fill-rule="evenodd"/>
            <path id="Rectangle_1526" data-name="Rectangle 1526" d="M168.385,221.828a1.5,1.5,0,0,1,1.5-1.5h1.826a1.5,1.5,0,0,1,1.5,1.5v6.646a1.5,1.5,0,0,1-1.5,1.5h-1.826a1.5,1.5,0,0,1-1.5-1.5Z" transform="translate(-149.103 -220.331)" fill="#3f51b5"/>
            <path id="Rectangle_1526_Stroke_" data-name="Rectangle 1526 (Stroke)" d="M171.708,221.828h-1.826v-1.5h1.826a1.5,1.5,0,0,1,1.5,1.5v6.646a1.5,1.5,0,0,1-1.5,1.5h-1.826a1.5,1.5,0,0,1-1.5-1.5v-6.646a1.5,1.5,0,0,1,1.5-1.5v8.143h1.826Z" transform="translate(-149.103 -220.331)" fill="#3f51b5" fill-rule="evenodd"/>
            <path id="Rectangle_1531" data-name="Rectangle 1531" d="M181.9,275.921a1.5,1.5,0,0,1,1.5-1.5h1.826a1.5,1.5,0,0,1,1.5,1.5v6.646a1.5,1.5,0,0,1-1.5,1.5h-1.826a1.5,1.5,0,0,1-1.5-1.5Z" transform="translate(-157.797 -255.141)" fill="#3f51b5"/>
            <path id="Rectangle_1531_Stroke_" data-name="Rectangle 1531 (Stroke)" d="M185.218,275.921h-1.826v-1.5h1.826a1.5,1.5,0,0,1,1.5,1.5v6.646a1.5,1.5,0,0,1-1.5,1.5h-1.826a1.5,1.5,0,0,1-1.5-1.5v-6.646a1.5,1.5,0,0,1,1.5-1.5v8.143h1.826Z" transform="translate(-157.797 -255.141)" fill="#3f51b5" fill-rule="evenodd"/>
            <path id="Rectangle_1529" data-name="Rectangle 1529" d="M168.385,262.392a1.5,1.5,0,0,1,1.5-1.5h1.826a1.5,1.5,0,0,1,1.5,1.5v1.826a1.5,1.5,0,0,1-1.5,1.5h-1.826a1.5,1.5,0,0,1-1.5-1.5Z" transform="translate(-149.103 -246.435)" fill="#3f51b5"/>
            <path id="Rectangle_1529_Stroke_" data-name="Rectangle 1529 (Stroke)" d="M169.882,262.392v-1.5h1.826a1.5,1.5,0,0,1,1.5,1.5Zm3.323,0h-1.5v1.826h-1.826V260.9a1.5,1.5,0,0,0-1.5,1.5v1.826a1.5,1.5,0,0,0,1.5,1.5h1.826a1.5,1.5,0,0,0,1.5-1.5Z" transform="translate(-149.103 -246.435)" fill="#3f51b5" fill-rule="evenodd"/>
            <path id="Rectangle_1535" data-name="Rectangle 1535" d="M195.43,302.956a1.5,1.5,0,0,1,1.5-1.5h1.826a1.5,1.5,0,0,1,1.5,1.5v1.826a1.5,1.5,0,0,1-1.5,1.5h-1.826a1.5,1.5,0,0,1-1.5-1.5Z" transform="translate(-166.506 -272.539)" fill="#3f51b5"/>
            <path id="Rectangle_1535_Stroke_" data-name="Rectangle 1535 (Stroke)" d="M196.926,302.956v-1.5h1.826a1.5,1.5,0,0,1,1.5,1.5Zm3.323,0h-1.5v1.826h-1.826v-3.323a1.5,1.5,0,0,0-1.5,1.5v1.826a1.5,1.5,0,0,0,1.5,1.5h1.826a1.5,1.5,0,0,0,1.5-1.5Z" transform="translate(-166.506 -272.539)" fill="#3f51b5" fill-rule="evenodd"/>
            <path id="Rectangle_1536" data-name="Rectangle 1536" d="M168.385,307.466a1.5,1.5,0,0,1,1.5-1.5h1.826a1.5,1.5,0,0,1,1.5,1.5v9.859a1.5,1.5,0,0,1-1.5,1.5h-1.826a1.5,1.5,0,0,1-1.5-1.5Z" transform="translate(-149.103 -275.441)" fill="#3f51b5"/>
            <path id="Rectangle_1527" data-name="Rectangle 1527" d="M114.293,275.921a1.5,1.5,0,0,1,1.5-1.5h1.826a1.5,1.5,0,0,1,1.5,1.5v1.826a1.5,1.5,0,0,1-1.5,1.5H115.79a1.5,1.5,0,0,1-1.5-1.5Z" transform="translate(-114.293 -255.141)" fill="#3f51b5"/>
            <path id="Rectangle_1527_Stroke_" data-name="Rectangle 1527 (Stroke)" d="M115.79,275.921v-1.5h1.826a1.5,1.5,0,0,1,1.5,1.5Zm3.323,0h-1.5v1.826H115.79v-3.323a1.5,1.5,0,0,0-1.5,1.5v1.826a1.5,1.5,0,0,0,1.5,1.5h1.826a1.5,1.5,0,0,0,1.5-1.5Z" transform="translate(-114.293 -255.141)" fill="#3f51b5" fill-rule="evenodd"/>
            <path id="Rectangle_1528" data-name="Rectangle 1528" d="M141.336,275.921a1.5,1.5,0,0,1,1.5-1.5h6.646a1.5,1.5,0,0,1,1.5,1.5v1.826a1.5,1.5,0,0,1-1.5,1.5h-6.646a1.5,1.5,0,0,1-1.5-1.5Z" transform="translate(-131.696 -255.141)" fill="#3f51b5"/>
            <path id="Rectangle_1528_Stroke_" data-name="Rectangle 1528 (Stroke)" d="M149.479,275.921h-6.646v1.826h6.646Zm-6.646-1.5a1.5,1.5,0,0,0-1.5,1.5v1.826a1.5,1.5,0,0,0,1.5,1.5h6.646a1.5,1.5,0,0,0,1.5-1.5v-1.826a1.5,1.5,0,0,0-1.5-1.5Z" transform="translate(-131.696 -255.141)" fill="#3f51b5" fill-rule="evenodd"/>
            <path id="Rectangle_1530" data-name="Rectangle 1530" d="M208.944,330.014a1.5,1.5,0,0,1,1.5-1.5h6.646a1.5,1.5,0,0,1,1.5,1.5v1.826a1.5,1.5,0,0,1-1.5,1.5h-6.646a1.5,1.5,0,0,1-1.5-1.5Z" transform="translate(-175.203 -289.951)" fill="#3f51b5"/>
            <path id="Rectangle_1530_Stroke_" data-name="Rectangle 1530 (Stroke)" d="M217.087,330.014h-6.646v1.826h6.646Zm-6.646-1.5a1.5,1.5,0,0,0-1.5,1.5v1.826a1.5,1.5,0,0,0,1.5,1.5h6.646a1.5,1.5,0,0,0,1.5-1.5v-1.826a1.5,1.5,0,0,0-1.5-1.5Z" transform="translate(-175.203 -289.951)" fill="#3f51b5" fill-rule="evenodd"/>
            <path id="Rectangle_1533" data-name="Rectangle 1533" d="M223.959,284.056a1.5,1.5,0,0,1-1.5-1.5v-6.646a1.5,1.5,0,0,1,1.5-1.5h1.826a1.5,1.5,0,0,1,1.5,1.5v6.646a1.5,1.5,0,0,1-1.5,1.5Z" transform="translate(-183.902 -255.136)" fill="#3f51b5"/>
            <path id="Rectangle_1533_Stroke_" data-name="Rectangle 1533 (Stroke)" d="M223.959,275.913v6.646h1.826v-6.646Zm-1.5,6.646a1.5,1.5,0,0,0,1.5,1.5h1.826a1.5,1.5,0,0,0,1.5-1.5v-6.646a1.5,1.5,0,0,0-1.5-1.5h-1.826a1.5,1.5,0,0,0-1.5,1.5Z" transform="translate(-183.902 -255.136)" fill="#3f51b5" fill-rule="evenodd"/>
            <path id="Rectangle_1532" data-name="Rectangle 1532" d="M225.79,314.988a1.5,1.5,0,0,1,1.5,1.5v6.646a1.5,1.5,0,0,1-1.5,1.5h-1.826a1.5,1.5,0,0,1-1.5-1.5v-6.646a1.5,1.5,0,0,1,1.5-1.5Z" transform="translate(-183.905 -281.245)" fill="#3f51b5"/>
            <path id="Rectangle_1532_Stroke_" data-name="Rectangle 1532 (Stroke)" d="M225.79,323.131v-6.646h-1.826v6.646Zm1.5-6.646a1.5,1.5,0,0,0-1.5-1.5h-1.826a1.5,1.5,0,0,0-1.5,1.5v6.646a1.5,1.5,0,0,0,1.5,1.5h1.826a1.5,1.5,0,0,0,1.5-1.5Z" transform="translate(-183.905 -281.245)" fill="#3f51b5" fill-rule="evenodd"/>
            <path id="Rectangle_1534" data-name="Rectangle 1534" d="M208.944,275.921a1.5,1.5,0,0,1,1.5-1.5h6.646a1.5,1.5,0,0,1,1.5,1.5v1.826a1.5,1.5,0,0,1-1.5,1.5h-6.646a1.5,1.5,0,0,1-1.5-1.5Z" transform="translate(-175.203 -255.141)" fill="#3f51b5"/>
            <path id="Rectangle_1534_Stroke_" data-name="Rectangle 1534 (Stroke)" d="M217.087,275.921h-6.646v1.826h6.646Zm-6.646-1.5a1.5,1.5,0,0,0-1.5,1.5v1.826a1.5,1.5,0,0,0,1.5,1.5h6.646a1.5,1.5,0,0,0,1.5-1.5v-1.826a1.5,1.5,0,0,0-1.5-1.5Z" transform="translate(-175.203 -255.141)" fill="#3f51b5" fill-rule="evenodd"/>
          </g>
        </g>
      </g>
    </g>
  </g>
</svg>
