<svg id="QRhandphonePink" xmlns="http://www.w3.org/2000/svg" width="167.5" height="272.869" viewBox="0 0 167.5 272.869">
  <g id="Groupe_321" data-name="Groupe 321" transform="translate(0 0)">
    <path id="Tracé_229" data-name="Tracé 229" d="M176.606,329.272c-.174.278-.5-1.065-.563-1.2a21.458,21.458,0,0,0-1.595-2.591c-1.957-2.832-4.607-6.045-8.279-6.331a21.891,21.891,0,0,0-7.289.928c-.73.242-3.5.876-4.158,1.021a45.537,45.537,0,0,1-7.434,1.288c-1.595.091-4.216,1.116-7.317-3.617-2.227-3.4,3.048-6.658,5.15-7.707.7-.348,7.846-3.8,7.708-3.9,0,0-.989.923-8.329-11.4a17.7,17.7,0,0,1-1.928-.214c-1.82-.261-8.161-1.83-9.607-2.657-3-1.716-6.866-6.046-6.047-9.854.418-1.943,1.665-4.168,3.772-4.291,1.637-.094,3.976-.094,5.6-.022.877.038,1.9.115,2.772.18,2.479.186,4.127.548,6.3.82,1.4.176,3.547.5,6,1.03,0,0,1.135.589,13.411-27.114,0,0-4.8-5.735-6.1-7.118-.875-.93-8.408-8.688-3.91-15.03.609-.859,1.884-2.233,3.065-2.417,3.565-.556,6.993,3.012,9.176,5.334.546.58,4.877,4.737,4.75,4.493l8.186,4.921c.38.486,7.275-.768,9.863,1.1,14.712,10.637,52.513,41.43,52.591,42.566.254,3.732,1.837,13.558,1.953,15.157a108.349,108.349,0,0,0,1.98,15.475c.658,3.293,3.029,8.414,3.029,11.885,0,.429.409,4.186-.321,5.981a44.087,44.087,0,0,1-3.53,6.742c-4.537,6.806-7.822,12.9-12.661,19.679-3.619,5.066-7.32,10.682-10.923,15.725-3.246,4.545-11.775,14.966-15.131,23.607-1.091,2.808-3.547,11.743-4.524,15.107-.827,2.848-47.449,1.413-46.687.818l-3.5.328c.386.523-4.854-6.455-3.149-19.133a18.157,18.157,0,0,1,2.069-6.547,85.744,85.744,0,0,1,5.9-10.054l1.722,8.253c0,.868-.647-2.825-.837-3.584a38.885,38.885,0,0,1-.669-9.375c0-9.137,1.255-18.081,5.357-26.284,3.837-7.676,9.649-14.311,14.387-21.483a51.944,51.944,0,0,0,6.2-12.167c4.387-13.16,1.877-50.228,14.549-57.142,2.545-1.39,7.018-1.02,8.7.666,4.178,4.178,3.736,10.831,3.736,16.848a172.919,172.919,0,0,1-1.514,20.934c-1.045,8.725-2.275,17.411-2.437,27.1-.1,6.006,1.07,14.8,1.07,20.558" transform="translate(-126.304 -146.19)" fill="#ffa8a0" fill-rule="evenodd"/>
    <path id="Tracé_230" data-name="Tracé 230" d="M164.186,253.725c-7.623,17.191-10.9,23.345-12.276,25.543a8.392,8.392,0,0,1-.674.948c-2.374-.5-4.447-.816-5.812-.988-2.181-.273-3.835-.636-6.324-.822-.872-.066-1.905-.143-2.787-.182-1.636-.072-4-.072-5.648.023a3.925,3.925,0,0,0-2.889,1.657,7.757,7.757,0,0,0-1.345,3.03,7.254,7.254,0,0,0,.963,4.967,15.041,15.041,0,0,0,5.327,5.428c1.472.843,7.931,2.453,9.785,2.719.219.031,1.2.168,1.711.214,4.5,7.538,6.633,10.08,7.6,10.926-1.833.968-6.364,3.154-6.91,3.427a14.751,14.751,0,0,0-5.093,3.989,3.713,3.713,0,0,0-.253,4.442,9.079,9.079,0,0,0,3.668,3.527,7.356,7.356,0,0,0,4.1.316,45.95,45.95,0,0,0,7.514-1.3c.663-.147,3.47-.79,4.207-1.035a21.281,21.281,0,0,1,7.093-.905c3.52.273,6.026,3.4,7.9,6.116a20.991,20.991,0,0,1,1.55,2.514c.014.049.16.546.268.836a1.8,1.8,0,0,0,.248.475.684.684,0,0,0,.177.151c-4.722,7.1-10.458,13.692-14.264,21.3-4.137,8.273-5.41,17.292-5.41,26.508,0,1.673-.021,3.365.068,5.035l-.272-.217a.507.507,0,0,1,.072-.39,85.961,85.961,0,0,0-5.927,10.1,18.607,18.607,0,0,0-2.12,6.708c-1.562,11.615,2.622,18.525,3.184,19.4l.018.027a.356.356,0,0,0,.041.067c.013.018.026.035.04.051.31.421.58.487.752.374a.292.292,0,0,0,.276-.281l2.7-.252a1.287,1.287,0,0,0,.2.055,9.8,9.8,0,0,0,1,.126c5.617.514,31.014,1.2,41.33.135a15.668,15.668,0,0,0,3.983-.766,1.306,1.306,0,0,0,.8-.746c.974-3.354,3.422-12.264,4.51-15.065,3.341-8.6,11.84-18.972,15.072-23.5,3.6-5.043,7.3-10.658,10.923-15.726,4.842-6.779,8.13-12.881,12.67-19.691a44.633,44.633,0,0,0,3.577-6.833c.754-1.851.358-5.727.358-6.17,0-3.5-2.374-8.665-3.039-11.984a107.909,107.909,0,0,1-1.971-15.412c-.117-1.6-1.7-11.424-1.953-15.155a1.133,1.133,0,0,0-.309-.573c-.486-.556-1.885-1.831-3.95-3.615-10.194-8.811-36.76-30.235-48.538-38.751a6.99,6.99,0,0,0-3.183-1.035,34.282,34.282,0,0,0-5.183-.063c-.661.024-1.385-.007-1.508-.012a.142.142,0,0,0-.024-.016l-8.177-4.915c-.021-.013-.041-.024-.06-.034-.67-.559-4.111-3.868-4.59-4.378a24.178,24.178,0,0,0-5.152-4.456,6.851,6.851,0,0,0-4.469-1.029,3.8,3.8,0,0,0-1.64.779,8.957,8.957,0,0,0-1.757,1.844,8.687,8.687,0,0,0-.883,8.218,22.487,22.487,0,0,0,4.836,7.447C159.444,248.078,163.266,252.626,164.186,253.725Zm7.357-14.361a.882.882,0,0,1-.195-.121c-.621-.506-4.214-3.961-4.711-4.489a23.091,23.091,0,0,0-4.92-4.274,5.862,5.862,0,0,0-3.813-.907,2.8,2.8,0,0,0-1.187.586,7.91,7.91,0,0,0-1.545,1.625,7.721,7.721,0,0,0-.755,7.307,21.339,21.339,0,0,0,4.62,7.088c1.176,1.25,5.194,6.034,5.984,6.979l.138.164a.424.424,0,0,1-.064.623l.137-.1c-9.874,22.283-12.6,26.352-13.285,27.092-.278.3-.443.307-.5.316a.487.487,0,0,1-.2-.007c-2.434-.522-4.564-.847-5.952-1.021-2.163-.272-3.8-.633-6.274-.818-.863-.065-1.884-.141-2.756-.18-1.606-.07-3.924-.071-5.546.022a2.941,2.941,0,0,0-2.15,1.268,6.7,6.7,0,0,0-1.16,2.627,6.252,6.252,0,0,0,.861,4.273,13.971,13.971,0,0,0,4.945,5.04c1.418.811,7.643,2.339,9.428,2.6.227.033,1.559.191,1.772.216a.5.5,0,0,1,.517.238,77.626,77.626,0,0,0,6.721,10.085,5.883,5.883,0,0,0,1.169,1.091,1.41,1.41,0,0,0-.171.014.423.423,0,0,0-.125.065.543.543,0,0,0-.074.067l.041-.027s-.083.151-.132.255c.01.308.467.608.467.608l.3-.9a.508.508,0,0,1,.122.681,1.07,1.07,0,0,1-.33.277c-1.069.639-6.948,3.479-7.579,3.793a13.615,13.615,0,0,0-4.717,3.667,2.772,2.772,0,0,0-.237,3.316,8.155,8.155,0,0,0,3.244,3.162,6.423,6.423,0,0,0,3.624.229,45,45,0,0,0,7.354-1.277c.647-.143,3.387-.768,4.108-1.007a22.492,22.492,0,0,1,7.487-.954c3.822.3,6.615,3.6,8.653,6.547a21.721,21.721,0,0,1,1.631,2.653c.036.071.141.444.255.78.02.06.048.131.073.192l.007,0,.022.012.018.01a50.15,50.15,0,0,0,5.712-11.384c2.627-7.881,2.768-24.354,5.2-37.761.985-5.433,2.346-10.368,4.379-14.052a13.653,13.653,0,0,1,5.206-5.611,9.686,9.686,0,0,1,5.974-.751,6.336,6.336,0,0,1,3.326,1.5,13.551,13.551,0,0,1,3.577,8.02,67.541,67.541,0,0,1,.306,9.183,173.253,173.253,0,0,1-1.518,20.993c-1.043,8.709-2.271,17.378-2.433,27.047-.1,6,1.07,14.792,1.07,20.549a.5.5,0,0,1-1,0c0-5.762-1.171-14.557-1.07-20.566.163-9.706,1.393-18.408,2.44-27.149a172.355,172.355,0,0,0,1.511-20.875,66.47,66.47,0,0,0-.3-9.044,12.57,12.57,0,0,0-3.293-7.449,5.326,5.326,0,0,0-2.791-1.224,8.628,8.628,0,0,0-5.317.642,12.664,12.664,0,0,0-4.807,5.215c-1.989,3.6-3.307,8.432-4.271,13.745-2.44,13.457-2.6,29.99-5.234,37.9a52.51,52.51,0,0,1-6.261,12.284c-4.729,7.156-10.529,13.773-14.358,21.431-4.066,8.132-5.3,17-5.3,26.059a60.921,60.921,0,0,0,.2,6.631l1.3,6.225a.5.5,0,0,1,.011.1.583.583,0,0,1-.391.618.5.5,0,0,1-.3-.011.617.617,0,0,1-.36-.416c-.173-.53-.625-3.038-.779-3.652a20.506,20.506,0,0,1-.472-2.686l-.172-.825a83.819,83.819,0,0,0-5.2,9.005,17.694,17.694,0,0,0-2.018,6.383c-1.425,10.592,2.069,17.135,2.915,18.537l3.186-.3.05,1,.309-.107a.452.452,0,0,0,.179-.448.475.475,0,0,0-.1-.23,1.571,1.571,0,0,0-.183-.141s.447.076.936.121c5.591.511,30.868,1.194,41.135.137a18.266,18.266,0,0,0,3.394-.58,2.955,2.955,0,0,0,.542-.255c.988-3.405,3.437-12.3,4.525-15.106,3.371-8.68,11.931-19.152,15.191-23.717,3.6-5.042,7.3-10.657,10.923-15.725,4.835-6.77,8.118-12.864,12.652-19.665a43.475,43.475,0,0,0,3.483-6.654c.706-1.736.283-5.376.283-5.791,0-3.444-2.365-8.52-3.019-11.787a108.535,108.535,0,0,1-1.988-15.536c-.116-1.583-1.667-11.226-1.945-15.044-.228-.226-1.85-1.822-3.923-3.613-10.18-8.8-36.708-30.193-48.47-38.7a6.652,6.652,0,0,0-3.2-.9,52.642,52.642,0,0,0-5.44.016,4,4,0,0,1-.918-.068.8.8,0,0,1-.308-.151Zm4.656,89.619v0ZM144.073,295.5a.455.455,0,0,0-.055.39A.5.5,0,0,1,144.073,295.5Zm7.511-15.2,0,0h0Zm-.025-.012.018.008Zm-.1-.031a.355.355,0,0,1,.077.021.481.481,0,0,0-.065-.019Zm12.923-26.308a.5.5,0,0,0,.394.19l-.444-.738a.473.473,0,0,0-.042.092l.026-.06a.507.507,0,0,0,.036.474l.005.006.008.012Zm7.238-15.527a.483.483,0,0,0-.231.146.455.455,0,0,0-.078.561.5.5,0,0,0,.2.205l.249.066-.022-.06C171.665,239.161,171.481,238.6,171.616,238.428Z" transform="translate(-126.307 -146.193)" fill="#ff5252" fill-rule="evenodd"/>
    <path id="Tracé_231" data-name="Tracé 231" d="M206.1,334.858a16.66,16.66,0,0,1,2.584,2.92c.632,1.138,1.567,4.146,2.683,5.85a2.631,2.631,0,0,0,1.941,1.44.5.5,0,1,0,0-1,1,1,0,0,1-.665-.415,6.373,6.373,0,0,1-.875-1.326c-.906-1.718-1.666-4.06-2.206-5.031a17.724,17.724,0,0,0-2.7-3.088.5.5,0,1,0-.762.655Z" transform="translate(-125.921 -145.681)" fill="#ff5252" fill-rule="evenodd"/>
    <path id="Tracé_232" data-name="Tracé 232" d="M220.388,337.136a10.839,10.839,0,0,1-1.38-.747,43.313,43.313,0,0,1-4.125-3.4.5.5,0,0,0-.9-.177.528.528,0,0,0-.09.4,1.307,1.307,0,0,0,.336.57,28.985,28.985,0,0,0,4.224,3.439,7.384,7.384,0,0,0,1.672.9.89.89,0,0,0,.806-.083.641.641,0,0,0,.244-.41.5.5,0,0,0-.786-.5Zm-.2.3a.118.118,0,0,0,0,.018Z" transform="translate(-125.882 -145.688)" fill="#ff5252" fill-rule="evenodd"/>
    <path id="Tracé_233" data-name="Tracé 233" d="M216.465,339.416l-.032-.048a34.775,34.775,0,0,1-2.2-4.247,3.86,3.86,0,0,1-.4-1.4.5.5,0,1,0-1-.1,4.828,4.828,0,0,0,.475,1.875,36.023,36.023,0,0,0,2.289,4.411.876.876,0,0,0,.3.309.465.465,0,0,0,.575-.109A.5.5,0,0,0,216.465,339.416Zm-.2-.128a.456.456,0,0,0-.523.13A.5.5,0,0,1,216.263,339.289Z" transform="translate(-125.888 -145.686)" fill="#ff5252" fill-rule="evenodd"/>
    <path id="Tracé_234" data-name="Tracé 234" d="M141.512,313.62a.5.5,0,0,0-.264-.3.6.6,0,0,0-.654.013.5.5,0,0,0-.071.756,14.106,14.106,0,0,0,1.936,1.46,6.863,6.863,0,0,0,4.026.208c1.486-.505,3.1-1.365,4.409-1.86a9.358,9.358,0,0,0,1.58-.7,2.7,2.7,0,0,0,1.249-1.511,1.853,1.853,0,0,0-.251-1.623c-.371-.61-1.084-1.3-1.881-2.427a.5.5,0,1,0-.821.58c.659.934,1.263,1.563,1.659,2.1.281.38.456.681.334,1.076a1.72,1.72,0,0,1-.814.952,8.381,8.381,0,0,1-1.41.618c-1.3.491-2.9,1.346-4.377,1.849a5.593,5.593,0,0,1-3.281-.17C142.72,314.559,141.9,313.923,141.512,313.62Z" transform="translate(-126.239 -145.81)" fill="#ff5252" fill-rule="evenodd"/>
    <path id="Tracé_235" data-name="Tracé 235" d="M165.161,314.184c-.184.113-.331.2-.409.257a.75.75,0,0,0-.1.075c-.813.534-1.577,1.04-1.924,1.226a35.392,35.392,0,0,0-4.85,3.047,5.516,5.516,0,0,1-1.294.689c-.114.045-.464.208-.613.276a.5.5,0,0,0-.313.154.486.486,0,0,0-.148.39.474.474,0,0,0,.273.421.515.515,0,0,0,.387.036c.126-.034.619-.277.788-.345a6.523,6.523,0,0,0,1.535-.828,34.146,34.146,0,0,1,4.71-2.954c.354-.19,1.145-.719,1.974-1.268a.484.484,0,0,0,.12-.076l.011-.008c.343-.229,1.993-1.2,2.316-1.4a.584.584,0,0,0,.219-.729.475.475,0,0,0-.614-.2A18.069,18.069,0,0,0,165.161,314.184Zm-8.636,6.068a.5.5,0,0,1-.138.349A.435.435,0,0,0,156.525,320.253Z" transform="translate(-126.165 -145.784)" fill="#ff5252" fill-rule="evenodd"/>
    <path id="Tracé_236" data-name="Tracé 236" d="M143.338,279.99a9.5,9.5,0,0,1-1.074,1.411,2.3,2.3,0,0,1-.98.676,10.021,10.021,0,0,1-4.448-.13c-1.126-.255-2.25-.627-3.385-1.006a9.9,9.9,0,0,1-2.586-1.7,3.065,3.065,0,0,1-.379-.412.509.509,0,0,1-.11-.194.5.5,0,0,0-.995.144,2.406,2.406,0,0,0,.8,1.195,11.137,11.137,0,0,0,2.955,1.919c1.168.39,2.324.771,3.482,1.033a11.02,11.02,0,0,0,4.889.132,3.092,3.092,0,0,0,1.331-.81,8.309,8.309,0,0,0,1.3-1.625,1.585,1.585,0,0,0,.184-.408.515.515,0,0,0-.042-.35.5.5,0,0,0-.942.124Zm.032.3a.161.161,0,0,0,.011.023Zm-.025-.071.007.023a.223.223,0,0,0,.008.024l.009.021A.388.388,0,0,1,143.345,280.221Z" transform="translate(-126.292 -145.952)" fill="#ff5252" fill-rule="evenodd"/>
    <path id="Tracé_237" data-name="Tracé 237" d="M160.592,229.494a.516.516,0,0,0-.02-.2.5.5,0,0,0-.628-.332.515.515,0,0,0-.375.625,2.676,2.676,0,0,0,.364.8,10.906,10.906,0,0,0,1.457,1.9c.447.387,1.311,1.168,2.234,1.821a7.063,7.063,0,0,0,1.973,1.049,1.813,1.813,0,0,0,1.341-.059.5.5,0,1,0-.46-.892.844.844,0,0,1-.606-.015,6.026,6.026,0,0,1-1.667-.9,27.614,27.614,0,0,1-2.156-1.76,9.645,9.645,0,0,1-1.258-1.663C160.713,229.736,160.634,229.58,160.592,229.494Zm-.258.391a.51.51,0,0,1-.093.039A.483.483,0,0,0,160.334,229.885Zm.017-.01-.016.009.013-.007Z" transform="translate(-126.146 -146.19)" fill="#ff5252" fill-rule="evenodd"/>
    <g id="Groupe_319" data-name="Groupe 319" transform="translate(25.265 12.922)">
      <ellipse id="Ellipse_34" data-name="Ellipse 34" cx="9.372" cy="8.436" rx="9.372" ry="8.436" transform="translate(22.316 142.678)" fill="#ffa8a0"/>
      <g id="Groupe_318" data-name="Groupe 318" transform="matrix(0.894, 0.448, -0.448, 0.894, 62.77, 0)">
        <rect id="Rectangle_258" data-name="Rectangle 258" width="78.602" height="140.13" fill="#ffe2df"/>
      </g>
    </g>
    <g id="Groupe_320" data-name="Groupe 320" transform="matrix(0.896, 0.444, -0.444, 0.896, 90.709, 0)">
      <path id="Tracé_238" data-name="Tracé 238" d="M85.692,12.569a12.423,12.423,0,0,0-3.767-8.888A13.013,13.013,0,0,0,72.832,0H13.2A13.051,13.051,0,0,0,0,12.9c0,32.13,0,115.437,0,147.335A12.539,12.539,0,0,0,3.8,169.2a13.13,13.13,0,0,0,9.176,3.714H72.892a12.657,12.657,0,0,0,12.8-12.509ZM42.813,154.788a6.583,6.583,0,1,1-6.734,6.582A6.663,6.663,0,0,1,42.813,154.788ZM80.84,20.889h-76V152.037h76Z" transform="translate(0 0)" fill="#ffa8a0" fill-rule="evenodd"/>
      <path id="Tracé_239" data-name="Tracé 239" d="M0,107.526v52.708A12.539,12.539,0,0,0,3.8,169.2a13.13,13.13,0,0,0,9.176,3.714H72.892a12.657,12.657,0,0,0,12.8-12.509v-52.9l-4.853,4.852v39.675h-76V112.363Zm42.813,47.262a6.583,6.583,0,1,1-6.734,6.582A6.663,6.663,0,0,1,42.813,154.788ZM0,65.4l4.836-4.836V20.889h76V60.563l4.853,4.852V12.569a12.423,12.423,0,0,0-3.767-8.888A13.013,13.013,0,0,0,72.832,0H13.2A13.051,13.051,0,0,0,0,12.9Z" transform="translate(0 0)" fill="#ffa8a0" fill-rule="evenodd"/>
    </g>
    <path id="Tracé_240" data-name="Tracé 240" d="M176.611,329.638a51.945,51.945,0,0,0,6.2-12.167c1.894-5.68,2.5-15.815,3.6-26.057,1.448-13.486,3.746-27.156,10.948-31.086,2.545-1.39,7.018-1.02,8.7.666,4.178,4.178,3.736,10.831,3.736,16.848,0,9.888-1.276,18.837-2.381,28.054a191.566,191.566,0,0,0-1.57,19.977c-.1,6.006,1.07,14.8,1.07,20.558" transform="translate(-126.063 -146.042)" fill="#ffa8a0" fill-rule="evenodd"/>
    <path id="Tracé_241" data-name="Tracé 241" d="M177.033,329.917a52.51,52.51,0,0,0,6.261-12.284c1.9-5.7,2.52-15.879,3.623-26.162.864-8.045,2.026-16.156,4.369-22.2,1.521-3.926,3.53-6.974,6.319-8.5a8.628,8.628,0,0,1,5.317-.642,5.326,5.326,0,0,1,2.791,1.224,12.569,12.569,0,0,1,3.293,7.449,66.47,66.47,0,0,1,.3,9.044c0,9.867-1.275,18.8-2.378,27.994a192.254,192.254,0,0,0-1.573,20.03c-.1,6.009,1.07,14.8,1.07,20.566a.5.5,0,1,0,1,0c0-5.757-1.171-14.546-1.07-20.549a191.167,191.167,0,0,1,1.566-19.927c1.108-9.237,2.385-18.2,2.385-28.114a67.544,67.544,0,0,0-.306-9.183,13.551,13.551,0,0,0-3.577-8.02,6.336,6.336,0,0,0-3.326-1.5,9.687,9.687,0,0,0-5.974.751c-2.971,1.621-5.155,4.834-6.776,9.015-2.369,6.115-3.557,14.319-4.43,22.457-1.094,10.2-1.692,20.295-3.578,25.951a51.491,51.491,0,0,1-6.147,12.049.5.5,0,0,0,.839.554Z" transform="translate(-126.065 -146.045)" fill="#ff5252" fill-rule="evenodd"/>
    <path id="Tracé_242" data-name="Tracé 242" d="M206.745,276.518a38.942,38.942,0,0,1-4.253.247,29.958,29.958,0,0,1-6.595-.665,4.557,4.557,0,0,1-2.544-1.268,4.365,4.365,0,0,1-.488-1.724,31.746,31.746,0,0,1-.234-4.3c0-1.313.1-2.638.1-2.736a.5.5,0,0,0-.913-.4,1.055,1.055,0,0,0-.1.382c-.043.415-.094,1.479-.1,2.752a28.575,28.575,0,0,0,.355,5.095,4.127,4.127,0,0,0,.56,1.525,5.543,5.543,0,0,0,3.112,1.651,31.04,31.04,0,0,0,6.834.7,28.26,28.26,0,0,0,4.35-.237,1.148,1.148,0,0,0,.563-.236,2.864,2.864,0,0,0,.521-.877,18.727,18.727,0,0,0,.918-3.486,30.087,30.087,0,0,0,.54-6.249,5.4,5.4,0,0,0-.347-1.853.5.5,0,0,0-.912.421,6.028,6.028,0,0,1,.272,2.214,31.841,31.841,0,0,1-.541,5.286,20.316,20.316,0,0,1-.731,2.946A3.387,3.387,0,0,1,206.745,276.518Z" transform="translate(-125.99 -146.018)" fill="#ff5252" fill-rule="evenodd"/>
  </g>
  <g id="Groupe_344" data-name="Groupe 344" transform="matrix(0.897, 0.442, -0.442, 0.897, 76.238, 51.333)">
    <g id="Groupe_322" data-name="Groupe 322" transform="translate(6.214 6.61)">
      <path id="Tracé_243" data-name="Tracé 243" d="M53.71,1.828A1.827,1.827,0,0,0,51.88,0H1.83A1.827,1.827,0,0,0,0,1.828V47.856a1.83,1.83,0,0,0,1.83,1.831H51.88a1.83,1.83,0,0,0,1.83-1.831Z" transform="translate(0 0)" fill="#fff" fill-rule="evenodd"/>
    </g>
    <path id="Tracé_244" data-name="Tracé 244" d="M0,16.637a1,1,0,0,0,1.977.282,6.112,6.112,0,0,0,.037-.686c.02-2.511.1-14.994.11-15.058A1,1,0,1,0,.144.835C.133.9.027,13.65,0,16.216c0,.245,0,.421,0,.421Z" transform="translate(0 0)" fill="#ff5252" fill-rule="evenodd"/>
    <g id="Groupe_323" data-name="Groupe 323" transform="matrix(0, -1, 1, 0, 0.127, 2.13)">
      <path id="Tracé_245" data-name="Tracé 245" d="M1.985,18.251c.005-.022.121-17.023.133-17.1A1,1,0,1,0,.13.861C.12.939.029,17.795.024,17.817a1,1,0,1,0,1.962.434Z" transform="translate(0 0)" fill="#ff5252" fill-rule="evenodd"/>
    </g>
    <g id="Groupe_324" data-name="Groupe 324" transform="translate(66.266 0.121) rotate(90)">
      <path id="Tracé_246" data-name="Tracé 246" d="M1.985,18.251c.005-.022.121-17.023.133-17.1A1,1,0,1,0,.13.861C.12.939.029,17.795.024,17.817a1,1,0,1,0,1.962.434Z" transform="translate(0 0)" fill="#ff5252" fill-rule="evenodd"/>
    </g>
    <g id="Groupe_325" data-name="Groupe 325" transform="matrix(1, 0, 0, 1, 64.126, 0.239)">
      <path id="Tracé_247" data-name="Tracé 247" d="M0,16.637a1,1,0,0,0,1.977.282,6.112,6.112,0,0,0,.037-.686c.02-2.511.1-14.994.11-15.058A1,1,0,1,0,.144.835C.133.9.027,13.65,0,16.216c0,.245,0,.421,0,.421Z" transform="translate(0 0)" fill="#ff5252" fill-rule="evenodd"/>
    </g>
    <g id="Groupe_326" data-name="Groupe 326" transform="translate(66.133 62.273) rotate(180)">
      <path id="Tracé_248" data-name="Tracé 248" d="M0,16.637a1,1,0,0,0,1.977.282,6.112,6.112,0,0,0,.037-.686c.02-2.511.1-14.994.11-15.058A1,1,0,1,0,.144.835C.133.9.027,13.65,0,16.216c0,.245,0,.421,0,.421Z" transform="translate(0 0)" fill="#ff5252" fill-rule="evenodd"/>
    </g>
    <g id="Groupe_327" data-name="Groupe 327" transform="matrix(0, 1, -1, 0, 66.005, 60.144)">
      <path id="Tracé_249" data-name="Tracé 249" d="M1.985,18.251c.005-.022.121-17.023.133-17.1A1,1,0,1,0,.13.861C.12.939.029,17.795.024,17.817a1,1,0,1,0,1.962.434Z" transform="translate(0 0)" fill="#ff5252" fill-rule="evenodd"/>
    </g>
    <g id="Groupe_328" data-name="Groupe 328" transform="translate(0.322 62.152) rotate(-90)">
      <path id="Tracé_250" data-name="Tracé 250" d="M1.985,18.251c.005-.022.121-17.023.133-17.1A1,1,0,1,0,.13.861C.12.939.029,17.795.024,17.817a1,1,0,1,0,1.962.434Z" transform="translate(0 0)" fill="#ff5252" fill-rule="evenodd"/>
    </g>
    <g id="Groupe_329" data-name="Groupe 329" transform="matrix(-1, 0, 0, -1, 2.46, 62.034)">
      <path id="Tracé_251" data-name="Tracé 251" d="M0,16.637a1,1,0,0,0,1.977.282,6.112,6.112,0,0,0,.037-.686c.02-2.511.1-14.994.11-15.058A1,1,0,1,0,.144.835C.133.9.027,13.65,0,16.216c0,.245,0,.421,0,.421Z" transform="translate(0 0)" fill="#ff5252" fill-rule="evenodd"/>
    </g>
    <g id="Groupe_330" data-name="Groupe 330" transform="translate(52.391 49.702) rotate(180)">
      <path id="Tracé_252" data-name="Tracé 252" d="M4.075,1.578A1.578,1.578,0,0,0,2.5,0H1.578A1.578,1.578,0,0,0,0,1.578V7.054A1.578,1.578,0,0,0,1.578,8.632H2.5A1.578,1.578,0,0,0,4.075,7.054Z" transform="translate(0 0)" fill="#ff5252" fill-rule="evenodd"/>
      <path id="Tracé_253" data-name="Tracé 253" d="M4.075,1.578A1.578,1.578,0,0,0,2.5,0H1.578A1.578,1.578,0,0,0,0,1.578V7.054A1.578,1.578,0,0,0,1.578,8.632H2.5A1.578,1.578,0,0,0,4.075,7.054Z" transform="translate(0 0)" fill="#ff5252" fill-rule="evenodd"/>
    </g>
    <g id="Groupe_331" data-name="Groupe 331" transform="translate(44.295 49.689) rotate(-90)">
      <path id="Tracé_254" data-name="Tracé 254" d="M4.075,1.578A1.578,1.578,0,0,0,2.5,0H1.578A1.578,1.578,0,0,0,0,1.578V6.514A1.578,1.578,0,0,0,1.578,8.093H2.5A1.578,1.578,0,0,0,4.075,6.514Z" transform="translate(0 0)" fill="#ff5252" fill-rule="evenodd"/>
      <path id="Tracé_255" data-name="Tracé 255" d="M4.075,1.578A1.578,1.578,0,0,0,2.5,0H1.578A1.578,1.578,0,0,0,0,1.578V6.514A1.578,1.578,0,0,0,1.578,8.093H2.5A1.578,1.578,0,0,0,4.075,6.514Z" transform="translate(0 0)" fill="#ff5252" fill-rule="evenodd"/>
    </g>
    <g id="Groupe_332" data-name="Groupe 332" transform="translate(14.088 13.505)">
      <path id="Tracé_256" data-name="Tracé 256" d="M12.141,1.578A1.576,1.576,0,0,0,10.563,0H1.578A1.578,1.578,0,0,0,0,1.578v8.985a1.578,1.578,0,0,0,1.578,1.578h8.985a1.576,1.576,0,0,0,1.578-1.578ZM3.516,8.625H8.625V3.516H3.516Z" transform="translate(0 0)" fill="#ff5252" fill-rule="evenodd"/>
    </g>
    <g id="Groupe_333" data-name="Groupe 333" transform="translate(30.916 13.591)">
      <path id="Tracé_257" data-name="Tracé 257" d="M4.314,1.579A1.579,1.579,0,0,0,2.736,0H1.578A1.579,1.579,0,0,0,0,1.579V6.45A1.579,1.579,0,0,0,1.578,8.029H2.736A1.579,1.579,0,0,0,4.314,6.45Z" transform="translate(0 0)" fill="#ff5252" fill-rule="evenodd"/>
      <path id="Tracé_258" data-name="Tracé 258" d="M4.314,1.579A1.579,1.579,0,0,0,2.736,0H1.578A1.579,1.579,0,0,0,0,1.579V6.45A1.579,1.579,0,0,0,1.578,8.029H2.736A1.579,1.579,0,0,0,4.314,6.45Z" transform="translate(0 0)" fill="#ff5252" fill-rule="evenodd"/>
    </g>
    <g id="Groupe_334" data-name="Groupe 334" transform="translate(35.244 29.66)">
      <path id="Tracé_259" data-name="Tracé 259" d="M4.314,1.579A1.579,1.579,0,0,0,2.736,0H1.578A1.579,1.579,0,0,0,0,1.579V6.45A1.579,1.579,0,0,0,1.578,8.029H2.736A1.579,1.579,0,0,0,4.314,6.45Z" transform="translate(0 0)" fill="#ff5252" fill-rule="evenodd"/>
      <path id="Tracé_260" data-name="Tracé 260" d="M4.314,1.579A1.579,1.579,0,0,0,2.736,0H1.578A1.579,1.579,0,0,0,0,1.579V6.45A1.579,1.579,0,0,0,1.578,8.029H2.736A1.579,1.579,0,0,0,4.314,6.45Z" transform="translate(0 0)" fill="#ff5252" fill-rule="evenodd"/>
    </g>
    <g id="Groupe_335" data-name="Groupe 335" transform="translate(30.881 29.628) rotate(90)">
      <path id="Tracé_261" data-name="Tracé 261" d="M3.979,1.578A1.578,1.578,0,0,0,2.4,0H1.578A1.578,1.578,0,0,0,0,1.578v5.46A1.578,1.578,0,0,0,1.578,8.616H2.4A1.578,1.578,0,0,0,3.979,7.038Z" transform="translate(0 0)" fill="#ff5252" fill-rule="evenodd"/>
      <path id="Tracé_262" data-name="Tracé 262" d="M3.979,1.578A1.578,1.578,0,0,0,2.4,0H1.578A1.578,1.578,0,0,0,0,1.578v5.46A1.578,1.578,0,0,0,1.578,8.616H2.4A1.578,1.578,0,0,0,3.979,7.038Z" transform="translate(0 0)" fill="#ff5252" fill-rule="evenodd"/>
    </g>
    <g id="Groupe_336" data-name="Groupe 336" transform="translate(18.115 29.557) rotate(90)">
      <path id="Tracé_263" data-name="Tracé 263" d="M4.075,1.578A1.578,1.578,0,0,0,2.5,0H1.578A1.578,1.578,0,0,0,0,1.578V2.837A1.578,1.578,0,0,0,1.578,4.415H2.5A1.578,1.578,0,0,0,4.075,2.837Zm-1.578.6v.061l.03-.03Zm-.919.061V2.177l-.03.03Z" transform="translate(0 0)" fill="#ff5252" fill-rule="evenodd"/>
      <path id="Tracé_264" data-name="Tracé 264" d="M.192,3.591a7.572,7.572,0,0,0,1.1-.495l.119.089.16.1.136.066a4.236,4.236,0,0,1-1.4.42,1.569,1.569,0,0,0,1.271.646h.939A10.4,10.4,0,0,0,4.075,2.055V1.913c-.177.129-.364.26-.558.39v.534a1.841,1.841,0,0,0-.065-.49L3.517,2.3V1.649L3.8,1.436l.254-.114A1.575,1.575,0,0,0,2.5,0H1.578A1.578,1.578,0,0,0,0,1.578V2.837A1.57,1.57,0,0,0,.192,3.591Zm.872-.711.063.069a1.616,1.616,0,0,0,.168.147A17.355,17.355,0,0,0,3.245,1.85l.119.232.046.125-.1.23.138-.091L3.41,2.208a1.8,1.8,0,0,0,.1-.556l-.268.2-.078-.122A17.273,17.273,0,0,0,1.063,2.88Zm.974.58a1.833,1.833,0,0,0,.459.057H1.578A1.832,1.832,0,0,0,2.037,3.46ZM1.578,2.238V2.177l-.03.03Z" transform="translate(0 0)" fill="#ff5252" fill-rule="evenodd"/>
    </g>
    <g id="Groupe_337" data-name="Groupe 337" transform="translate(35.305 25.596) rotate(90)">
      <path id="Tracé_265" data-name="Tracé 265" d="M4.075,1.578A1.578,1.578,0,0,0,2.5,0H1.578A1.578,1.578,0,0,0,0,1.578V2.837A1.578,1.578,0,0,0,1.578,4.415H2.5A1.578,1.578,0,0,0,4.075,2.837Zm-1.578.6v.061l.03-.03Zm-.919.061V2.177l-.03.03Z" transform="translate(0 0)" fill="#ff5252" fill-rule="evenodd"/>
      <path id="Tracé_266" data-name="Tracé 266" d="M.192,3.591a7.572,7.572,0,0,0,1.1-.495l.119.089.16.1.136.066a4.236,4.236,0,0,1-1.4.42,1.569,1.569,0,0,0,1.271.646h.939A10.4,10.4,0,0,0,4.075,2.055V1.913c-.177.129-.364.26-.558.39v.534a1.841,1.841,0,0,0-.065-.49L3.517,2.3V1.649L3.8,1.436l.254-.114A1.575,1.575,0,0,0,2.5,0H1.578A1.578,1.578,0,0,0,0,1.578V2.837A1.57,1.57,0,0,0,.192,3.591Zm.872-.711.063.069a1.616,1.616,0,0,0,.168.147A17.355,17.355,0,0,0,3.245,1.85l.119.232.046.125-.1.23.138-.091L3.41,2.208a1.8,1.8,0,0,0,.1-.556l-.268.2-.078-.122A17.273,17.273,0,0,0,1.063,2.88Zm.974.58a1.833,1.833,0,0,0,.459.057H1.578A1.832,1.832,0,0,0,2.037,3.46ZM1.578,2.238V2.177l-.03.03Z" transform="translate(0 0)" fill="#ff5252" fill-rule="evenodd"/>
    </g>
    <g id="Groupe_338" data-name="Groupe 338" transform="translate(43.923 37.625) rotate(90)">
      <path id="Tracé_267" data-name="Tracé 267" d="M4.075,1.578A1.578,1.578,0,0,0,2.5,0H1.578A1.578,1.578,0,0,0,0,1.578V2.837A1.578,1.578,0,0,0,1.578,4.415H2.5A1.578,1.578,0,0,0,4.075,2.837Zm-1.578.6v.061l.03-.03Zm-.919.061V2.177l-.03.03Z" transform="translate(0 0)" fill="#ff5252" fill-rule="evenodd"/>
      <path id="Tracé_268" data-name="Tracé 268" d="M.192,3.591a7.572,7.572,0,0,0,1.1-.495l.119.089.16.1.136.066a4.236,4.236,0,0,1-1.4.42,1.569,1.569,0,0,0,1.271.646h.939A10.4,10.4,0,0,0,4.075,2.055V1.913c-.177.129-.364.26-.558.39v.534a1.841,1.841,0,0,0-.065-.49L3.517,2.3V1.649L3.8,1.436l.254-.114A1.575,1.575,0,0,0,2.5,0H1.578A1.578,1.578,0,0,0,0,1.578V2.837A1.57,1.57,0,0,0,.192,3.591Zm.872-.711.063.069a1.616,1.616,0,0,0,.168.147A17.355,17.355,0,0,0,3.245,1.85l.119.232.046.125-.1.23.138-.091L3.41,2.208a1.8,1.8,0,0,0,.1-.556l-.268.2-.078-.122A17.273,17.273,0,0,0,1.063,2.88Zm.974.58a1.833,1.833,0,0,0,.459.057H1.578A1.832,1.832,0,0,0,2.037,3.46ZM1.578,2.238V2.177l-.03.03Z" transform="translate(0 0)" fill="#ff5252" fill-rule="evenodd"/>
    </g>
    <g id="Groupe_339" data-name="Groupe 339" transform="translate(52.413 29.582) rotate(90)">
      <path id="Tracé_269" data-name="Tracé 269" d="M4.075,1.578A1.578,1.578,0,0,0,2.5,0H1.578A1.578,1.578,0,0,0,0,1.578V7.054A1.578,1.578,0,0,0,1.578,8.632H2.5A1.578,1.578,0,0,0,4.075,7.054Z" transform="translate(0 0)" fill="#ff5252" fill-rule="evenodd"/>
      <path id="Tracé_270" data-name="Tracé 270" d="M4.075,1.578A1.578,1.578,0,0,0,2.5,0H1.578A1.578,1.578,0,0,0,0,1.578V7.054A1.578,1.578,0,0,0,1.578,8.632H2.5A1.578,1.578,0,0,0,4.075,7.054Z" transform="translate(0 0)" fill="#ff5252" fill-rule="evenodd"/>
    </g>
    <g id="Groupe_340" data-name="Groupe 340" transform="translate(52.396 37.682) rotate(180)">
      <path id="Tracé_271" data-name="Tracé 271" d="M4.075,1.578A1.578,1.578,0,0,0,2.5,0H1.578A1.578,1.578,0,0,0,0,1.578V6.514A1.578,1.578,0,0,0,1.578,8.092H2.5A1.578,1.578,0,0,0,4.075,6.514Z" transform="translate(0 0)" fill="#ff5252" fill-rule="evenodd"/>
      <path id="Tracé_272" data-name="Tracé 272" d="M4.075,1.578A1.578,1.578,0,0,0,2.5,0H1.578A1.578,1.578,0,0,0,0,1.578V6.514A1.578,1.578,0,0,0,1.578,8.092H2.5A1.578,1.578,0,0,0,4.075,6.514Z" transform="translate(0 0)" fill="#ff5252" fill-rule="evenodd"/>
    </g>
    <g id="Groupe_341" data-name="Groupe 341" transform="translate(30.983 38.936)">
      <path id="Tracé_273" data-name="Tracé 273" d="M4.314,1.578A1.578,1.578,0,0,0,2.736,0H1.578A1.578,1.578,0,0,0,0,1.578v7.5a1.578,1.578,0,0,0,1.578,1.578H2.736A1.578,1.578,0,0,0,4.314,9.075Z" transform="translate(0 0)" fill="#ff5252" fill-rule="evenodd"/>
      <path id="Tracé_274" data-name="Tracé 274" d="M4.314,1.578A1.578,1.578,0,0,0,2.736,0H1.578A1.578,1.578,0,0,0,0,1.578v7.5a1.578,1.578,0,0,0,1.578,1.578H2.736A1.578,1.578,0,0,0,4.314,9.075Z" transform="translate(0 0)" fill="#ff5252" fill-rule="evenodd"/>
    </g>
    <g id="Groupe_342" data-name="Groupe 342" transform="translate(14.088 37.507)">
      <path id="Tracé_275" data-name="Tracé 275" d="M12.141,1.578A1.576,1.576,0,0,0,10.563,0H1.578A1.578,1.578,0,0,0,0,1.578v8.985a1.578,1.578,0,0,0,1.578,1.578h8.985a1.576,1.576,0,0,0,1.578-1.578ZM3.516,8.625H8.625V3.516H3.516Z" transform="translate(0 0)" fill="#ff5252" fill-rule="evenodd"/>
    </g>
    <g id="Groupe_343" data-name="Groupe 343" transform="translate(39.992 13.505)">
      <path id="Tracé_276" data-name="Tracé 276" d="M12.141,1.578A1.576,1.576,0,0,0,10.563,0H1.578A1.578,1.578,0,0,0,0,1.578v8.985a1.578,1.578,0,0,0,1.578,1.578h8.985a1.576,1.576,0,0,0,1.578-1.578ZM3.516,8.625H8.625V3.516H3.516Z" transform="translate(0 0)" fill="#ff5252" fill-rule="evenodd"/>
    </g>
  </g>
</svg>
