<svg xmlns="http://www.w3.org/2000/svg" xmlns:xlink="http://www.w3.org/1999/xlink" width="274.733" height="195" viewBox="0 0 274.733 195">
  <defs>
    <clipPath id="clip-path">
      <rect id="Rectangle_286" data-name="Rectangle 286" width="214" height="195" transform="translate(1342.82 4508)" fill="#fff" stroke="#707070" stroke-width="1"/>
    </clipPath>
    <clipPath id="clip-path-2">
      <rect id="Rectangle_19" data-name="Rectangle 19" width="116.233" height="84.173" fill="#ff5252" stroke="#707070" stroke-width="1"/>
    </clipPath>
  </defs>
  <g id="Group_485" data-name="Group 485" transform="translate(-4749.134 -7450.414)">
    <g id="Groupe_de_masques_15" data-name="Groupe de masques 15" transform="translate(3467.046 2942.414)" clip-path="url(#clip-path)">
      <g id="car" transform="translate(1342.973 4516.678)">
        <g id="Group" transform="translate(0 0)">
          <g id="Group_2">
            <path id="Vector" d="M49.351,268.613l1.278-11.553c0-5.608,3.157-5.249,8.933-5.249H73.445c5.892-.777,28.066-3.215,28.066-3.215,59.622-28.96,101.125-35.8,101.125-35.8s35.9-1.2,81.361,0,87.579,37.814,90.876,39.416h5.964c104.09,0,146.906,33.785,146.906,33.785s2.632,7.426,2.632,20.507-2.632,28.976-2.632,28.976l5.267,2.82v7.641c-9.429,5.826-24.191,9.2-39.738,11.125a44.635,44.635,0,0,0,3.508-17.383c0-24.277-19.28-44.042-42.988-44.042S410.8,315.4,410.8,339.682a44.539,44.539,0,0,0,4.239,18.94c-30.309-.545-112.114-2.047-145.879-3.027-18.805-.545-49.894.11-79.231.973a49.971,49.971,0,0,0,2.98-16.892c0-27.071-21.5-49.093-47.92-49.093s-47.919,22.029-47.919,49.093a49.9,49.9,0,0,0,2.2,14.7c-15.665-5.266-35.8-13.365-35.8-13.365C32.1,316.875,47.664,279.164,47.826,277.958S49.351,268.613,49.351,268.613Z" transform="translate(-43.824 -212.26)" fill="#3949a2"/>
            <path id="Vector_2" d="M139.224,372.5c-15.867,0-29.453-9.529-35.931-23.251a41.372,41.372,0,0,1-4.1-17.747c0-22.641,17.926-41,40.02-41s40.022,18.363,40.022,41a41.55,41.55,0,0,1-3.783,17.154C169.108,362.707,155.327,372.5,139.224,372.5Z" transform="translate(-38.051 -204.102)" fill="#b5c0ff"/>
          </g>
          <g id="Group_3">
            <path id="Vector_3" d="M49.351,268.613l1.278-11.553c0-5.608,3.157-5.249,8.933-5.249H73.445c5.892-.777,28.066-3.215,28.066-3.215,59.622-28.96,101.125-35.8,101.125-35.8s35.9-1.2,81.361,0,87.579,37.814,90.876,39.416h5.964c104.09,0,146.906,33.785,146.906,33.785s2.632,7.426,2.632,20.507-2.632,28.976-2.632,28.976l5.267,2.82v7.641c-9.429,5.826-24.191,9.2-39.738,11.125a44.635,44.635,0,0,0,3.508-17.383c0-24.277-19.28-44.042-42.988-44.042S410.8,315.4,410.8,339.682a44.539,44.539,0,0,0,4.239,18.94c-30.309-.545-112.114-2.047-145.879-3.027-18.805-.545-49.894.11-79.231.973a49.971,49.971,0,0,0,2.98-16.892c0-27.071-21.5-49.093-47.92-49.093s-47.919,22.029-47.919,49.093a49.9,49.9,0,0,0,2.2,14.7c-15.665-5.266-35.8-13.365-35.8-13.365C32.1,316.875,47.664,279.164,47.826,277.958S49.351,268.613,49.351,268.613Z" transform="translate(-43.824 -212.26)" fill="#ffa8a0"/>
            <path id="Vector_4" d="M141.172,382.683c-19.46,0-36.124-11.688-44.069-28.518A50.74,50.74,0,0,1,92.076,332.4c0-27.769,21.986-50.283,49.086-50.283s49.087,22.522,49.087,50.283a51,51,0,0,1-4.639,21.04C177.826,370.665,160.923,382.683,141.172,382.683Z" transform="translate(-38.793 -204.977)" fill="#ffe2df"/>
            <path id="Vector_5" d="M420.333,382.683c-19.46,0-36.124-11.688-44.069-28.518a50.742,50.742,0,0,1-5.028-21.767c0-27.769,21.986-50.283,49.086-50.283S469.41,304.637,469.41,332.4a51,51,0,0,1-4.639,21.04C456.987,370.665,440.085,382.683,420.333,382.683Z" transform="translate(-9.689 -204.977)" fill="#b5c0ff"/>
          </g>
        </g>
      </g>
    </g>
    <g id="Groupe_412" data-name="Groupe 412" transform="translate(868.134 7624.414)">
      <g id="Groupe_de_masques_8" data-name="Groupe de masques 8" transform="translate(3881 -174)" clip-path="url(#clip-path-2)">
        <g id="qr_sticker" transform="translate(0 7.216)">
          <path id="Rectangle_1537" data-name="Rectangle 1537" d="M48.269,150.447a5.635,5.635,0,0,1,5.635-5.635H158.867a5.635,5.635,0,0,1,5.635,5.635v58.469a5.635,5.635,0,0,1-5.635,5.635H53.9a5.635,5.635,0,0,1-5.635-5.635Z" transform="translate(-48.269 -144.812)" fill="#ff5252"/>
          <g id="Group_7045" data-name="Group 7045" transform="translate(9.619 12.022)">
            <path id="Rectangle_1507" data-name="Rectangle 1507" d="M86.218,196.748a4.508,4.508,0,0,1,4.508-4.508h36.066a4.508,4.508,0,0,1,4.508,4.508v36.066a4.508,4.508,0,0,1-4.508,4.508H90.726a4.508,4.508,0,0,1-4.508-4.508Z" transform="translate(-86.218 -192.24)" fill="#fff"/>
            <g id="Group_7044" data-name="Group 7044" transform="translate(7.116 7.12)">
              <path id="Rectangle_1523_Stroke_" data-name="Rectangle 1523 (Stroke)" d="M117.486,223.524v3.9h3.9v-3.9Zm-2.129-3.193a1.064,1.064,0,0,0-1.065,1.065v8.153a1.064,1.064,0,0,0,1.065,1.064h8.153a1.064,1.064,0,0,0,1.064-1.064V221.4a1.064,1.064,0,0,0-1.064-1.065Z" transform="translate(-114.293 -220.331)" fill="#3f51b5" fill-rule="evenodd"/>
              <path id="Rectangle_1524_Stroke_" data-name="Rectangle 1524 (Stroke)" d="M117.486,304.652v3.9h3.9v-3.9Zm-2.129-3.193a1.065,1.065,0,0,0-1.065,1.065v8.153a1.064,1.064,0,0,0,1.065,1.064h8.153a1.064,1.064,0,0,0,1.064-1.064v-8.153a1.064,1.064,0,0,0-1.064-1.065Z" transform="translate(-114.293 -280.895)" fill="#3f51b5" fill-rule="evenodd"/>
              <path id="Rectangle_1525_Stroke_" data-name="Rectangle 1525 (Stroke)" d="M198.623,223.524v3.9h3.9v-3.9Zm-2.129-3.193a1.064,1.064,0,0,0-1.064,1.065v8.153a1.064,1.064,0,0,0,1.064,1.064h8.153a1.064,1.064,0,0,0,1.065-1.064V221.4a1.065,1.065,0,0,0-1.065-1.065Z" transform="translate(-174.864 -220.331)" fill="#3f51b5" fill-rule="evenodd"/>
              <path id="Rectangle_1526" data-name="Rectangle 1526" d="M168.385,221.4a1.065,1.065,0,0,1,1.065-1.065h1.3a1.065,1.065,0,0,1,1.065,1.065v4.726a1.065,1.065,0,0,1-1.065,1.065h-1.3a1.065,1.065,0,0,1-1.065-1.065Z" transform="translate(-154.674 -220.331)" fill="#3f51b5"/>
              <path id="Rectangle_1526_Stroke_" data-name="Rectangle 1526 (Stroke)" d="M170.748,221.4h-1.3v-1.065h1.3a1.065,1.065,0,0,1,1.065,1.065v4.726a1.065,1.065,0,0,1-1.065,1.065h-1.3a1.065,1.065,0,0,1-1.065-1.065V221.4a1.065,1.065,0,0,1,1.065-1.065v5.79h1.3Z" transform="translate(-154.674 -220.331)" fill="#3f51b5" fill-rule="evenodd"/>
              <path id="Rectangle_1531" data-name="Rectangle 1531" d="M181.9,275.488a1.065,1.065,0,0,1,1.065-1.065h1.3a1.064,1.064,0,0,1,1.064,1.065v4.726a1.064,1.064,0,0,1-1.064,1.064h-1.3a1.064,1.064,0,0,1-1.065-1.064Z" transform="translate(-164.76 -260.712)" fill="#3f51b5"/>
              <path id="Rectangle_1531_Stroke_" data-name="Rectangle 1531 (Stroke)" d="M184.258,275.488h-1.3v-1.065h1.3a1.064,1.064,0,0,1,1.064,1.065v4.726a1.064,1.064,0,0,1-1.064,1.064h-1.3a1.064,1.064,0,0,1-1.065-1.064v-4.726a1.065,1.065,0,0,1,1.065-1.065v5.79h1.3Z" transform="translate(-164.76 -260.712)" fill="#3f51b5" fill-rule="evenodd"/>
              <path id="Rectangle_1529" data-name="Rectangle 1529" d="M168.385,261.96a1.065,1.065,0,0,1,1.065-1.064h1.3a1.064,1.064,0,0,1,1.065,1.064v1.3a1.065,1.065,0,0,1-1.065,1.065h-1.3a1.065,1.065,0,0,1-1.065-1.065Z" transform="translate(-154.674 -250.613)" fill="#3f51b5"/>
              <path id="Rectangle_1529_Stroke_" data-name="Rectangle 1529 (Stroke)" d="M169.45,261.96V260.9h1.3a1.064,1.064,0,0,1,1.065,1.064Zm2.363,0h-1.065v1.3h-1.3V260.9a1.065,1.065,0,0,0-1.065,1.064v1.3a1.065,1.065,0,0,0,1.065,1.065h1.3a1.065,1.065,0,0,0,1.065-1.065Z" transform="translate(-154.674 -250.613)" fill="#3f51b5" fill-rule="evenodd"/>
              <path id="Rectangle_1535" data-name="Rectangle 1535" d="M195.43,302.523a1.064,1.064,0,0,1,1.064-1.065h1.3a1.065,1.065,0,0,1,1.065,1.065v1.3a1.065,1.065,0,0,1-1.065,1.065h-1.3a1.065,1.065,0,0,1-1.064-1.065Z" transform="translate(-174.864 -280.895)" fill="#3f51b5"/>
              <path id="Rectangle_1535_Stroke_" data-name="Rectangle 1535 (Stroke)" d="M196.494,302.523v-1.065h1.3a1.065,1.065,0,0,1,1.065,1.065Zm2.363,0h-1.065v1.3h-1.3v-2.363a1.064,1.064,0,0,0-1.064,1.065v1.3a1.065,1.065,0,0,0,1.064,1.065h1.3a1.065,1.065,0,0,0,1.065-1.065Z" transform="translate(-174.864 -280.895)" fill="#3f51b5" fill-rule="evenodd"/>
              <path id="Rectangle_1536" data-name="Rectangle 1536" d="M168.385,307.033a1.065,1.065,0,0,1,1.065-1.065h1.3a1.065,1.065,0,0,1,1.065,1.065v7.011a1.065,1.065,0,0,1-1.065,1.065h-1.3a1.065,1.065,0,0,1-1.065-1.065Z" transform="translate(-154.674 -284.262)" fill="#3f51b5"/>
              <path id="Rectangle_1527" data-name="Rectangle 1527" d="M114.293,275.488a1.065,1.065,0,0,1,1.065-1.065h1.3a1.064,1.064,0,0,1,1.064,1.065v1.3a1.064,1.064,0,0,1-1.064,1.065h-1.3a1.065,1.065,0,0,1-1.065-1.065Z" transform="translate(-114.293 -260.712)" fill="#3f51b5"/>
              <path id="Rectangle_1527_Stroke_" data-name="Rectangle 1527 (Stroke)" d="M115.357,275.488v-1.065h1.3a1.064,1.064,0,0,1,1.064,1.065Zm2.363,0h-1.064v1.3h-1.3v-2.363a1.065,1.065,0,0,0-1.065,1.065v1.3a1.065,1.065,0,0,0,1.065,1.065h1.3a1.064,1.064,0,0,0,1.064-1.065Z" transform="translate(-114.293 -260.712)" fill="#3f51b5" fill-rule="evenodd"/>
              <path id="Rectangle_1528" data-name="Rectangle 1528" d="M141.336,275.488a1.065,1.065,0,0,1,1.065-1.065h4.726a1.065,1.065,0,0,1,1.065,1.065v1.3a1.065,1.065,0,0,1-1.065,1.065H142.4a1.065,1.065,0,0,1-1.065-1.065Z" transform="translate(-134.481 -260.712)" fill="#3f51b5"/>
              <path id="Rectangle_1528_Stroke_" data-name="Rectangle 1528 (Stroke)" d="M147.126,275.488H142.4v1.3h4.726Zm-4.726-1.065a1.065,1.065,0,0,0-1.065,1.065v1.3a1.065,1.065,0,0,0,1.065,1.065h4.726a1.065,1.065,0,0,0,1.065-1.065v-1.3a1.065,1.065,0,0,0-1.065-1.065Z" transform="translate(-134.481 -260.712)" fill="#3f51b5" fill-rule="evenodd"/>
              <path id="Rectangle_1530" data-name="Rectangle 1530" d="M208.944,329.581a1.064,1.064,0,0,1,1.065-1.064h4.726a1.064,1.064,0,0,1,1.065,1.064v1.3a1.064,1.064,0,0,1-1.065,1.065h-4.726a1.064,1.064,0,0,1-1.065-1.065Z" transform="translate(-184.952 -301.095)" fill="#3f51b5"/>
              <path id="Rectangle_1530_Stroke_" data-name="Rectangle 1530 (Stroke)" d="M214.734,329.581h-4.726v1.3h4.726Zm-4.726-1.064a1.064,1.064,0,0,0-1.065,1.064v1.3a1.064,1.064,0,0,0,1.065,1.065h4.726a1.064,1.064,0,0,0,1.065-1.065v-1.3a1.064,1.064,0,0,0-1.065-1.064Z" transform="translate(-184.952 -301.095)" fill="#3f51b5" fill-rule="evenodd"/>
              <path id="Rectangle_1533" data-name="Rectangle 1533" d="M223.526,281.27a1.064,1.064,0,0,1-1.065-1.064V275.48a1.065,1.065,0,0,1,1.065-1.065h1.3a1.065,1.065,0,0,1,1.064,1.065v4.726a1.064,1.064,0,0,1-1.064,1.064Z" transform="translate(-195.044 -260.706)" fill="#3f51b5"/>
              <path id="Rectangle_1533_Stroke_" data-name="Rectangle 1533 (Stroke)" d="M223.526,275.48v4.726h1.3V275.48Zm-1.065,4.726a1.064,1.064,0,0,0,1.065,1.064h1.3a1.064,1.064,0,0,0,1.064-1.064V275.48a1.065,1.065,0,0,0-1.064-1.065h-1.3a1.065,1.065,0,0,0-1.065,1.065Z" transform="translate(-195.044 -260.706)" fill="#3f51b5" fill-rule="evenodd"/>
              <path id="Rectangle_1532" data-name="Rectangle 1532" d="M224.829,314.988a1.064,1.064,0,0,1,1.064,1.065v4.726a1.065,1.065,0,0,1-1.064,1.065h-1.3a1.065,1.065,0,0,1-1.065-1.065v-4.726a1.064,1.064,0,0,1,1.065-1.065Z" transform="translate(-195.047 -290.995)" fill="#3f51b5"/>
              <path id="Rectangle_1532_Stroke_" data-name="Rectangle 1532 (Stroke)" d="M224.829,320.778v-4.726h-1.3v4.726Zm1.064-4.726a1.064,1.064,0,0,0-1.064-1.065h-1.3a1.064,1.064,0,0,0-1.065,1.065v4.726a1.065,1.065,0,0,0,1.065,1.065h1.3a1.065,1.065,0,0,0,1.064-1.065Z" transform="translate(-195.047 -290.995)" fill="#3f51b5" fill-rule="evenodd"/>
              <path id="Rectangle_1534" data-name="Rectangle 1534" d="M208.944,275.488a1.065,1.065,0,0,1,1.065-1.065h4.726a1.065,1.065,0,0,1,1.065,1.065v1.3a1.065,1.065,0,0,1-1.065,1.065h-4.726a1.065,1.065,0,0,1-1.065-1.065Z" transform="translate(-184.952 -260.712)" fill="#3f51b5"/>
              <path id="Rectangle_1534_Stroke_" data-name="Rectangle 1534 (Stroke)" d="M214.734,275.488h-4.726v1.3h4.726Zm-4.726-1.065a1.065,1.065,0,0,0-1.065,1.065v1.3a1.065,1.065,0,0,0,1.065,1.065h4.726a1.065,1.065,0,0,0,1.065-1.065v-1.3a1.065,1.065,0,0,0-1.065-1.065Z" transform="translate(-184.952 -260.712)" fill="#3f51b5" fill-rule="evenodd"/>
            </g>
          </g>
        </g>
      </g>
    </g>
  </g>
</svg>
