<svg xmlns="http://www.w3.org/2000/svg" width="79.368" height="118.317" viewBox="0 0 79.368 118.317">
  <g id="Group_213" data-name="Group 213" transform="translate(0 77.53)">
    <path id="Path_120" data-name="Path 120" d="M13.444-41.542c-.559,2.191-1.33,63.108-.2,63.39,1.627.407,17.3-18.081,19.427-18.258C34.473,3.44,52.7,21.262,52.794,20.871c.35-1.4.9-61.058.363-62.14C53.018-41.545,13.757-41.262,13.444-41.542Z" transform="translate(6.661 18.933)" fill="#b4bfff" fill-rule="evenodd"/>
    <path id="Path_121" data-name="Path 121" d="M39.684-77.53A39.7,39.7,0,0,1,79.368-37.846,39.7,39.7,0,0,1,39.684,1.839,39.7,39.7,0,0,1,0-37.846,39.7,39.7,0,0,1,39.684-77.53Z" transform="translate(0 0)" fill="#3f50b4" fill-rule="evenodd"/>
    <path id="Path_122" data-name="Path 122" d="M36.841-72.126A31.452,31.452,0,0,1,68.278-40.689,31.452,31.452,0,0,1,36.841-9.251,31.452,31.452,0,0,1,5.4-40.689,31.452,31.452,0,0,1,36.841-72.126Z" transform="translate(2.843 2.843)" fill="#b4bfff" fill-rule="evenodd"/>
    <path id="Path_123" data-name="Path 123" d="M32.94-63.807c-.175.108-14.029,22.575-14.065,22.629-.091.136.389.794.427.791.074-.006,8.562-.145,8.574-.133.084.084-1.4,14.261-1.308,14.2.4-.278,14.119-22.641,14.089-22.734a2.242,2.242,0,0,0-.4-.572c-.136-.047-8.658.012-8.658.025C31.6-49.406,32.94-63.807,32.94-63.807Z" transform="translate(9.924 7.219)" fill="#3f50b4" fill-rule="evenodd"/>
    <path id="Path_123_-_Outline" data-name="Path 123 - Outline" d="M32.94-64.307a.5.5,0,0,1,.263.075.5.5,0,0,1,.234.471c-.415,4.468-1.073,11.538-1.285,13.65,1.417-.017,4.883-.035,6.426-.035a8.539,8.539,0,0,1,1.84.046c.374.13.71.877.712.884.075.225,0,.349-.191.68-.1.167-.244.413-.434.729-.365.607-.9,1.493-1.554,2.563-1.344,2.205-3.076,5.029-4.753,7.747-1.342,2.175-3.269,5.292-4.834,7.783-2.289,3.645-2.386,3.713-2.509,3.8a.5.5,0,0,1-.288.091.5.5,0,0,1-.371-.165c-.158-.175-.15-.281-.092-.969.029-.349.074-.848.138-1.525.119-1.258.28-2.9.451-4.641.255-2.592.561-5.709.656-6.9-1.823.022-7.768.12-8.022.128H19.3c-.116,0-.386,0-.788-.754a.8.8,0,0,1-.06-.807l.755-1.222c1.419-2.3,4.742-7.679,7.686-12.43,1.652-2.665,2.959-4.767,3.887-6.25,1.743-2.788,1.758-2.8,1.895-2.881A.5.5,0,0,1,32.94-64.307ZM31.107-49.7c.065-.531.733-7.674,1.146-12.112-1.525,2.427-4.969,7.97-12.193,19.67l-.652,1.056c.035.061.08.134.124.2,1.415-.028,7.829-.129,8.3-.129a.525.525,0,0,1,.4.147.646.646,0,0,1,.143.566c-.007.116-.019.279-.037.5-.032.393-.083.953-.154,1.711-.132,1.4-.315,3.27-.493,5.075-.167,1.694-.346,3.517-.469,4.832,1.058-1.656,3-4.756,6.114-9.808,3.328-5.4,6.131-10,6.748-11.049l-.059-.088c-.194,0-.6-.009-1.446-.008-2.36,0-6.454.03-6.915.041a.5.5,0,0,1-.066,0,.5.5,0,0,1-.5-.484A.5.5,0,0,1,31.107-49.7Z" transform="translate(9.924 7.219)" fill="#3f50b4"/>
  </g>
</svg>
