<svg xmlns="http://www.w3.org/2000/svg" width="120.385" height="179.461" viewBox="0 0 120.385 179.461">
  <g id="Groupe_405" data-name="Groupe 405" transform="translate(0 77.53)">
    <path id="Tracé_120" data-name="Tracé 120" d="M13.848-41.542C13-38.218,11.83,54.18,13.539,54.607c2.467.617,26.248-27.426,29.467-27.693,2.738-.228,30.379,26.8,30.527,26.212.531-2.125,1.371-92.611.55-94.253C73.874-41.547,14.323-41.117,13.848-41.542Z" transform="translate(16.648 47.315)" fill="#ffe2df" fill-rule="evenodd"/>
    <path id="Tracé_121" data-name="Tracé 121" d="M60.192-77.53a60.221,60.221,0,0,1,60.192,60.192A60.221,60.221,0,0,1,60.192,42.855,60.221,60.221,0,0,1,0-17.337,60.221,60.221,0,0,1,60.192-77.53Z" transform="translate(0 0)" fill="#ffa8a0" fill-rule="evenodd"/>
    <path id="Tracé_122" data-name="Tracé 122" d="M53.088-72.126a47.706,47.706,0,0,1,47.684,47.683A47.706,47.706,0,0,1,53.088,23.241,47.706,47.706,0,0,1,5.4-24.442,47.706,47.706,0,0,1,53.088-72.126Z" transform="translate(7.105 7.105)" fill="#ffe2df" fill-rule="evenodd"/>
    <path id="Tracé_123" data-name="Tracé 123" d="M40.215-63.807c-.265.164-21.279,34.241-21.334,34.323-.139.206.591,1.2.648,1.2.112-.01,12.987-.22,13.006-.2.128.127-2.119,21.631-1.984,21.536.6-.422,21.416-34.342,21.369-34.482a3.4,3.4,0,0,0-.611-.868c-.207-.072-13.132.019-13.132.039C38.188-41.963,40.215-63.807,40.215-63.807Z" transform="translate(24.801 18.041)" fill="#ff5252" stroke="#ff5252" stroke-linecap="round" stroke-linejoin="round" stroke-width="1" fill-rule="evenodd"/>
  </g>
</svg>
